<mxfile host="app.diagrams.net" modified="2022-09-01T06:57:01.169Z" agent="5.0 (Macintosh; Intel Mac OS X 10_15_7) AppleWebKit/537.36 (KHTML, like Gecko) Chrome/104.0.0.0 Safari/537.36" etag="bU-Xk-ZnPnCMYpvVw3PP" version="20.2.7" type="github" pages="6">
  <diagram id="nTWPoJEnFSnotM4Kedfl" name="classDiagram">
    <mxGraphModel dx="1186" dy="653" grid="1" gridSize="10" guides="1" tooltips="1" connect="1" arrows="1" fold="1" page="1" pageScale="1" pageWidth="827" pageHeight="1169" math="0" shadow="0">
      <root>
        <mxCell id="0" />
        <mxCell id="1" parent="0" />
        <mxCell id="PguQYnZTo6dj_5RU9vS7-1" value="ConcurrentHashMap" style="swimlane;fontStyle=1;align=center;verticalAlign=top;childLayout=stackLayout;horizontal=1;startSize=26;horizontalStack=0;resizeParent=1;resizeParentMax=0;resizeLast=0;collapsible=1;marginBottom=0;" parent="1" vertex="1">
          <mxGeometry x="630" y="490" width="160" height="174" as="geometry" />
        </mxCell>
        <mxCell id="PguQYnZTo6dj_5RU9vS7-2" value="+ table: Node&lt;K,V&gt;[]&#xa;+ nextTable: Node&lt;k,V&gt;[]&#xa;+ sizeCtl: int" style="text;strokeColor=none;fillColor=none;align=left;verticalAlign=top;spacingLeft=4;spacingRight=4;overflow=hidden;rotatable=0;points=[[0,0.5],[1,0.5]];portConstraint=eastwest;" parent="PguQYnZTo6dj_5RU9vS7-1" vertex="1">
          <mxGeometry y="26" width="160" height="114" as="geometry" />
        </mxCell>
        <mxCell id="PguQYnZTo6dj_5RU9vS7-3" value="" style="line;strokeWidth=1;fillColor=none;align=left;verticalAlign=middle;spacingTop=-1;spacingLeft=3;spacingRight=3;rotatable=0;labelPosition=right;points=[];portConstraint=eastwest;" parent="PguQYnZTo6dj_5RU9vS7-1" vertex="1">
          <mxGeometry y="140" width="160" height="8" as="geometry" />
        </mxCell>
        <mxCell id="PguQYnZTo6dj_5RU9vS7-4" value="+ putVal(K,V,boolean): V" style="text;strokeColor=none;fillColor=none;align=left;verticalAlign=top;spacingLeft=4;spacingRight=4;overflow=hidden;rotatable=0;points=[[0,0.5],[1,0.5]];portConstraint=eastwest;" parent="PguQYnZTo6dj_5RU9vS7-1" vertex="1">
          <mxGeometry y="148" width="160" height="26" as="geometry" />
        </mxCell>
        <mxCell id="PguQYnZTo6dj_5RU9vS7-6" value="" style="endArrow=open;startArrow=circlePlus;endFill=0;startFill=0;endSize=8;html=1;rounded=0;entryX=-0.011;entryY=0.11;entryDx=0;entryDy=0;entryPerimeter=0;" parent="1" source="PguQYnZTo6dj_5RU9vS7-1" target="PguQYnZTo6dj_5RU9vS7-11" edge="1">
          <mxGeometry width="160" relative="1" as="geometry">
            <mxPoint x="667" y="310" as="sourcePoint" />
            <mxPoint x="830" y="310" as="targetPoint" />
          </mxGeometry>
        </mxCell>
        <mxCell id="PguQYnZTo6dj_5RU9vS7-11" value="Node" style="swimlane;fontStyle=1;align=center;verticalAlign=top;childLayout=stackLayout;horizontal=1;startSize=26;horizontalStack=0;resizeParent=1;resizeParentMax=0;resizeLast=0;collapsible=1;marginBottom=0;" parent="1" vertex="1">
          <mxGeometry x="850" y="570" width="190" height="154" as="geometry" />
        </mxCell>
        <mxCell id="PguQYnZTo6dj_5RU9vS7-12" value="+ hash: int&#xa;+ value: V&#xa;+ key: K&#xa;+ next: Node" style="text;strokeColor=none;fillColor=none;align=left;verticalAlign=top;spacingLeft=4;spacingRight=4;overflow=hidden;rotatable=0;points=[[0,0.5],[1,0.5]];portConstraint=eastwest;" parent="PguQYnZTo6dj_5RU9vS7-11" vertex="1">
          <mxGeometry y="26" width="190" height="94" as="geometry" />
        </mxCell>
        <mxCell id="PguQYnZTo6dj_5RU9vS7-13" value="" style="line;strokeWidth=1;fillColor=none;align=left;verticalAlign=middle;spacingTop=-1;spacingLeft=3;spacingRight=3;rotatable=0;labelPosition=right;points=[];portConstraint=eastwest;" parent="PguQYnZTo6dj_5RU9vS7-11" vertex="1">
          <mxGeometry y="120" width="190" height="8" as="geometry" />
        </mxCell>
        <mxCell id="PguQYnZTo6dj_5RU9vS7-14" value="+ finnd(int,Object): Node&lt;K,V&gt;" style="text;strokeColor=none;fillColor=none;align=left;verticalAlign=top;spacingLeft=4;spacingRight=4;overflow=hidden;rotatable=0;points=[[0,0.5],[1,0.5]];portConstraint=eastwest;" parent="PguQYnZTo6dj_5RU9vS7-11" vertex="1">
          <mxGeometry y="128" width="190" height="26" as="geometry" />
        </mxCell>
        <mxCell id="PguQYnZTo6dj_5RU9vS7-15" value="" style="endArrow=diamondThin;endFill=0;endSize=24;html=1;rounded=0;entryX=0.75;entryY=0;entryDx=0;entryDy=0;exitX=1;exitY=0.66;exitDx=0;exitDy=0;exitPerimeter=0;" parent="PguQYnZTo6dj_5RU9vS7-11" source="PguQYnZTo6dj_5RU9vS7-12" target="PguQYnZTo6dj_5RU9vS7-11" edge="1">
          <mxGeometry width="160" relative="1" as="geometry">
            <mxPoint x="50" y="90" as="sourcePoint" />
            <mxPoint x="210" y="90" as="targetPoint" />
            <Array as="points">
              <mxPoint x="270" y="88" />
              <mxPoint x="270" y="-100" />
              <mxPoint x="143" y="-100" />
            </Array>
          </mxGeometry>
        </mxCell>
        <mxCell id="PguQYnZTo6dj_5RU9vS7-16" value="AbstractMap" style="swimlane;fontStyle=1;align=center;verticalAlign=top;childLayout=stackLayout;horizontal=1;startSize=26;horizontalStack=0;resizeParent=1;resizeParentMax=0;resizeLast=0;collapsible=1;marginBottom=0;" parent="1" vertex="1">
          <mxGeometry x="560" y="280" width="160" height="34" as="geometry" />
        </mxCell>
        <mxCell id="PguQYnZTo6dj_5RU9vS7-18" value="" style="line;strokeWidth=1;fillColor=none;align=left;verticalAlign=middle;spacingTop=-1;spacingLeft=3;spacingRight=3;rotatable=0;labelPosition=right;points=[];portConstraint=eastwest;" parent="PguQYnZTo6dj_5RU9vS7-16" vertex="1">
          <mxGeometry y="26" width="160" height="8" as="geometry" />
        </mxCell>
        <mxCell id="PguQYnZTo6dj_5RU9vS7-20" value="ConncurrentMap" style="swimlane;fontStyle=1;align=center;verticalAlign=top;childLayout=stackLayout;horizontal=1;startSize=26;horizontalStack=0;resizeParent=1;resizeParentMax=0;resizeLast=0;collapsible=1;marginBottom=0;" parent="1" vertex="1">
          <mxGeometry x="800" y="260" width="160" height="34" as="geometry" />
        </mxCell>
        <mxCell id="PguQYnZTo6dj_5RU9vS7-22" value="" style="line;strokeWidth=1;fillColor=none;align=left;verticalAlign=middle;spacingTop=-1;spacingLeft=3;spacingRight=3;rotatable=0;labelPosition=right;points=[];portConstraint=eastwest;" parent="PguQYnZTo6dj_5RU9vS7-20" vertex="1">
          <mxGeometry y="26" width="160" height="8" as="geometry" />
        </mxCell>
        <mxCell id="PguQYnZTo6dj_5RU9vS7-24" value="Map" style="swimlane;fontStyle=1;align=center;verticalAlign=top;childLayout=stackLayout;horizontal=1;startSize=26;horizontalStack=0;resizeParent=1;resizeParentMax=0;resizeLast=0;collapsible=1;marginBottom=0;" parent="1" vertex="1">
          <mxGeometry x="660" y="110" width="160" height="34" as="geometry" />
        </mxCell>
        <mxCell id="PguQYnZTo6dj_5RU9vS7-26" value="" style="line;strokeWidth=1;fillColor=none;align=left;verticalAlign=middle;spacingTop=-1;spacingLeft=3;spacingRight=3;rotatable=0;labelPosition=right;points=[];portConstraint=eastwest;" parent="PguQYnZTo6dj_5RU9vS7-24" vertex="1">
          <mxGeometry y="26" width="160" height="8" as="geometry" />
        </mxCell>
        <mxCell id="PguQYnZTo6dj_5RU9vS7-28" value="" style="endArrow=block;dashed=1;endFill=0;endSize=12;html=1;rounded=0;exitX=0.563;exitY=0;exitDx=0;exitDy=0;exitPerimeter=0;" parent="1" source="PguQYnZTo6dj_5RU9vS7-16" target="PguQYnZTo6dj_5RU9vS7-24" edge="1">
          <mxGeometry width="160" relative="1" as="geometry">
            <mxPoint x="660" y="370" as="sourcePoint" />
            <mxPoint x="820" y="370" as="targetPoint" />
          </mxGeometry>
        </mxCell>
        <mxCell id="PguQYnZTo6dj_5RU9vS7-29" value="" style="endArrow=block;dashed=1;endFill=0;endSize=12;html=1;rounded=0;entryX=0.5;entryY=1;entryDx=0;entryDy=0;exitX=0.5;exitY=0;exitDx=0;exitDy=0;" parent="1" source="PguQYnZTo6dj_5RU9vS7-20" target="PguQYnZTo6dj_5RU9vS7-24" edge="1">
          <mxGeometry width="160" relative="1" as="geometry">
            <mxPoint x="660" y="370" as="sourcePoint" />
            <mxPoint x="820" y="370" as="targetPoint" />
          </mxGeometry>
        </mxCell>
        <mxCell id="PguQYnZTo6dj_5RU9vS7-30" value="" style="endArrow=block;dashed=1;endFill=0;endSize=12;html=1;rounded=0;exitX=0.556;exitY=-0.006;exitDx=0;exitDy=0;exitPerimeter=0;" parent="1" source="PguQYnZTo6dj_5RU9vS7-1" target="PguQYnZTo6dj_5RU9vS7-20" edge="1">
          <mxGeometry width="160" relative="1" as="geometry">
            <mxPoint x="660" y="370" as="sourcePoint" />
            <mxPoint x="820" y="370" as="targetPoint" />
          </mxGeometry>
        </mxCell>
        <mxCell id="PguQYnZTo6dj_5RU9vS7-31" value="Extends" style="endArrow=block;endSize=16;endFill=0;html=1;rounded=0;exitX=0.5;exitY=0;exitDx=0;exitDy=0;" parent="1" source="PguQYnZTo6dj_5RU9vS7-1" target="PguQYnZTo6dj_5RU9vS7-16" edge="1">
          <mxGeometry width="160" relative="1" as="geometry">
            <mxPoint x="660" y="370" as="sourcePoint" />
            <mxPoint x="820" y="370" as="targetPoint" />
          </mxGeometry>
        </mxCell>
        <mxCell id="_65CIZnCFHtu80Ehmc7j-1" value="ConcurrentHashMap中大部分属性都是volatile。&lt;br&gt;&lt;div&gt;&lt;div&gt;&lt;font color=&quot;#ff00ff&quot;&gt;sizeCtl：&lt;/font&gt;是一个用于同步多个线程的共享变量，如果它的当前值为负数，则说明table正在被某个线程初始化或者扩容，所以，如果某个线程想要初始化table或者对table扩容，需要去竞争sizeCtl这个共享变量，获得变量的线程才有许可去进行接下来的操作，没能获得的线程将会一直自旋来尝试获得这个共享变量&lt;/div&gt;&lt;/div&gt;&lt;div&gt;&lt;font color=&quot;#ff00ff&quot;&gt;transferIndex&lt;/font&gt;：协调多个线程多table数组中的node进行迁移，每个线程最少迁移16个node，当transferIndex小于等于0是，不再需要协助扩容。&lt;/div&gt;&lt;div&gt;ForwardingNode节点：代表该node已经迁移完成，可以查找，如果是插入的话就协助扩容。&lt;/div&gt;" style="shape=document;whiteSpace=wrap;html=1;boundedLbl=1;align=left;size=0.2;" parent="1" vertex="1">
          <mxGeometry y="460" width="440" height="230" as="geometry" />
        </mxCell>
        <mxCell id="_65CIZnCFHtu80Ehmc7j-2" value="" style="shape=flexArrow;endArrow=classic;html=1;rounded=0;entryX=1;entryY=0.25;entryDx=0;entryDy=0;exitX=0;exitY=0.075;exitDx=0;exitDy=0;exitPerimeter=0;" parent="1" source="PguQYnZTo6dj_5RU9vS7-1" target="_65CIZnCFHtu80Ehmc7j-1" edge="1">
          <mxGeometry width="50" height="50" relative="1" as="geometry">
            <mxPoint x="710" y="580" as="sourcePoint" />
            <mxPoint x="760" y="530" as="targetPoint" />
          </mxGeometry>
        </mxCell>
      </root>
    </mxGraphModel>
  </diagram>
  <diagram id="OEulCBpZv285a_LUhkDX" name="putVal">
    <mxGraphModel dx="1186" dy="653" grid="1" gridSize="10" guides="1" tooltips="1" connect="1" arrows="1" fold="1" page="1" pageScale="1" pageWidth="827" pageHeight="1169" math="0" shadow="0">
      <root>
        <mxCell id="0" />
        <mxCell id="1" parent="0" />
        <mxCell id="dOHxIbNJJwz0cMyqUG18-3" style="edgeStyle=orthogonalEdgeStyle;rounded=0;orthogonalLoop=1;jettySize=auto;html=1;" parent="1" source="dOHxIbNJJwz0cMyqUG18-1" target="dOHxIbNJJwz0cMyqUG18-2" edge="1">
          <mxGeometry relative="1" as="geometry" />
        </mxCell>
        <mxCell id="dOHxIbNJJwz0cMyqUG18-1" value="start" style="whiteSpace=wrap;html=1;" parent="1" vertex="1">
          <mxGeometry x="370" y="60" width="120" height="60" as="geometry" />
        </mxCell>
        <mxCell id="dOHxIbNJJwz0cMyqUG18-5" style="edgeStyle=orthogonalEdgeStyle;rounded=0;orthogonalLoop=1;jettySize=auto;html=1;entryX=0.5;entryY=0;entryDx=0;entryDy=0;" parent="1" source="dOHxIbNJJwz0cMyqUG18-2" target="dOHxIbNJJwz0cMyqUG18-4" edge="1">
          <mxGeometry relative="1" as="geometry" />
        </mxCell>
        <mxCell id="dOHxIbNJJwz0cMyqUG18-2" value="参数合法性检查&lt;br&gt;key，value不能为null" style="whiteSpace=wrap;html=1;" parent="1" vertex="1">
          <mxGeometry x="370" y="190" width="120" height="60" as="geometry" />
        </mxCell>
        <mxCell id="yattQfk-8Gp9yaDiqW34-4" style="edgeStyle=orthogonalEdgeStyle;rounded=0;orthogonalLoop=1;jettySize=auto;html=1;fontColor=#000000;" parent="1" source="dOHxIbNJJwz0cMyqUG18-4" target="yattQfk-8Gp9yaDiqW34-1" edge="1">
          <mxGeometry relative="1" as="geometry" />
        </mxCell>
        <mxCell id="dOHxIbNJJwz0cMyqUG18-4" value="计算出hash值，使用高位掩码提升效率" style="whiteSpace=wrap;html=1;" parent="1" vertex="1">
          <mxGeometry x="370" y="310" width="120" height="60" as="geometry" />
        </mxCell>
        <mxCell id="yattQfk-8Gp9yaDiqW34-5" style="edgeStyle=orthogonalEdgeStyle;rounded=0;orthogonalLoop=1;jettySize=auto;html=1;entryX=0.5;entryY=0;entryDx=0;entryDy=0;fontColor=#000000;" parent="1" source="yattQfk-8Gp9yaDiqW34-1" target="yattQfk-8Gp9yaDiqW34-3" edge="1">
          <mxGeometry relative="1" as="geometry" />
        </mxCell>
        <mxCell id="yattQfk-8Gp9yaDiqW34-1" value="tab = table;&lt;br&gt;binCount = 0;" style="whiteSpace=wrap;html=1;fontColor=#000000;" parent="1" vertex="1">
          <mxGeometry x="370" y="440" width="120" height="60" as="geometry" />
        </mxCell>
        <mxCell id="yattQfk-8Gp9yaDiqW34-7" style="edgeStyle=orthogonalEdgeStyle;rounded=0;orthogonalLoop=1;jettySize=auto;html=1;entryX=1;entryY=0.5;entryDx=0;entryDy=0;fontColor=#000000;" parent="1" source="yattQfk-8Gp9yaDiqW34-3" target="yattQfk-8Gp9yaDiqW34-6" edge="1">
          <mxGeometry relative="1" as="geometry" />
        </mxCell>
        <mxCell id="yattQfk-8Gp9yaDiqW34-9" value="是" style="edgeLabel;html=1;align=center;verticalAlign=middle;resizable=0;points=[];fontColor=#000000;" parent="yattQfk-8Gp9yaDiqW34-7" vertex="1" connectable="0">
          <mxGeometry x="-0.0833" y="-2" relative="1" as="geometry">
            <mxPoint as="offset" />
          </mxGeometry>
        </mxCell>
        <mxCell id="yattQfk-8Gp9yaDiqW34-13" style="edgeStyle=orthogonalEdgeStyle;rounded=0;orthogonalLoop=1;jettySize=auto;html=1;entryX=0;entryY=0.5;entryDx=0;entryDy=0;fontColor=#000000;" parent="1" source="yattQfk-8Gp9yaDiqW34-3" target="yattQfk-8Gp9yaDiqW34-10" edge="1">
          <mxGeometry relative="1" as="geometry" />
        </mxCell>
        <mxCell id="yattQfk-8Gp9yaDiqW34-14" value="否" style="edgeLabel;html=1;align=center;verticalAlign=middle;resizable=0;points=[];fontColor=#000000;" parent="yattQfk-8Gp9yaDiqW34-13" vertex="1" connectable="0">
          <mxGeometry x="-0.08" y="1" relative="1" as="geometry">
            <mxPoint y="1" as="offset" />
          </mxGeometry>
        </mxCell>
        <mxCell id="yattQfk-8Gp9yaDiqW34-3" value="检查tab是否为空" style="rhombus;whiteSpace=wrap;html=1;fontFamily=Helvetica;fontSize=12;fontColor=default;" parent="1" vertex="1">
          <mxGeometry x="360" y="580" width="140" height="130" as="geometry" />
        </mxCell>
        <mxCell id="yattQfk-8Gp9yaDiqW34-8" style="edgeStyle=orthogonalEdgeStyle;rounded=0;orthogonalLoop=1;jettySize=auto;html=1;entryX=0.5;entryY=0;entryDx=0;entryDy=0;fontColor=#000000;" parent="1" source="yattQfk-8Gp9yaDiqW34-6" target="yattQfk-8Gp9yaDiqW34-3" edge="1">
          <mxGeometry relative="1" as="geometry">
            <Array as="points">
              <mxPoint x="180" y="580" />
            </Array>
          </mxGeometry>
        </mxCell>
        <mxCell id="yattQfk-8Gp9yaDiqW34-6" value="执行初始化&lt;br&gt;tab = initTable()" style="whiteSpace=wrap;html=1;fontColor=#000000;" parent="1" vertex="1">
          <mxGeometry x="120" y="615" width="120" height="60" as="geometry" />
        </mxCell>
        <mxCell id="yattQfk-8Gp9yaDiqW34-16" style="edgeStyle=orthogonalEdgeStyle;rounded=0;orthogonalLoop=1;jettySize=auto;html=1;entryX=0.5;entryY=0;entryDx=0;entryDy=0;fontColor=#000000;" parent="1" source="yattQfk-8Gp9yaDiqW34-10" target="yattQfk-8Gp9yaDiqW34-15" edge="1">
          <mxGeometry relative="1" as="geometry" />
        </mxCell>
        <mxCell id="yattQfk-8Gp9yaDiqW34-10" value="获取该槽位的头节点赋值给f" style="whiteSpace=wrap;html=1;fontColor=#000000;" parent="1" vertex="1">
          <mxGeometry x="600" y="615" width="120" height="60" as="geometry" />
        </mxCell>
        <mxCell id="yattQfk-8Gp9yaDiqW34-11" value="这里是保证节点的可见性的，即使表在扩容" style="shape=document;whiteSpace=wrap;html=1;boundedLbl=1;fontColor=#000000;" parent="1" vertex="1">
          <mxGeometry x="770" y="730" width="140" height="80" as="geometry" />
        </mxCell>
        <mxCell id="yattQfk-8Gp9yaDiqW34-12" value="" style="shape=flexArrow;endArrow=classic;html=1;rounded=0;fontColor=#000000;entryX=0.25;entryY=0;entryDx=0;entryDy=0;exitX=0.75;exitY=1;exitDx=0;exitDy=0;" parent="1" source="yattQfk-8Gp9yaDiqW34-10" target="yattQfk-8Gp9yaDiqW34-11" edge="1">
          <mxGeometry width="50" height="50" relative="1" as="geometry">
            <mxPoint x="540" y="710" as="sourcePoint" />
            <mxPoint x="590" y="660" as="targetPoint" />
          </mxGeometry>
        </mxCell>
        <mxCell id="yattQfk-8Gp9yaDiqW34-19" style="edgeStyle=orthogonalEdgeStyle;rounded=0;orthogonalLoop=1;jettySize=auto;html=1;entryX=1;entryY=0.5;entryDx=0;entryDy=0;fontColor=#000000;" parent="1" source="yattQfk-8Gp9yaDiqW34-15" target="yattQfk-8Gp9yaDiqW34-18" edge="1">
          <mxGeometry relative="1" as="geometry" />
        </mxCell>
        <mxCell id="yattQfk-8Gp9yaDiqW34-20" value="是" style="edgeLabel;html=1;align=center;verticalAlign=middle;resizable=0;points=[];fontColor=#000000;" parent="yattQfk-8Gp9yaDiqW34-19" vertex="1" connectable="0">
          <mxGeometry y="-1" relative="1" as="geometry">
            <mxPoint as="offset" />
          </mxGeometry>
        </mxCell>
        <mxCell id="yattQfk-8Gp9yaDiqW34-27" style="edgeStyle=orthogonalEdgeStyle;rounded=0;orthogonalLoop=1;jettySize=auto;html=1;entryX=0.5;entryY=0;entryDx=0;entryDy=0;fontColor=#000000;" parent="1" source="yattQfk-8Gp9yaDiqW34-15" target="yattQfk-8Gp9yaDiqW34-26" edge="1">
          <mxGeometry relative="1" as="geometry" />
        </mxCell>
        <mxCell id="yattQfk-8Gp9yaDiqW34-15" value="头节点f是否为null" style="rhombus;whiteSpace=wrap;html=1;fontFamily=Helvetica;fontSize=12;fontColor=default;" parent="1" vertex="1">
          <mxGeometry x="590" y="790" width="140" height="130" as="geometry" />
        </mxCell>
        <mxCell id="yattQfk-8Gp9yaDiqW34-22" style="edgeStyle=orthogonalEdgeStyle;rounded=0;orthogonalLoop=1;jettySize=auto;html=1;entryX=0.5;entryY=0;entryDx=0;entryDy=0;fontColor=#000000;" parent="1" source="yattQfk-8Gp9yaDiqW34-18" target="yattQfk-8Gp9yaDiqW34-21" edge="1">
          <mxGeometry relative="1" as="geometry" />
        </mxCell>
        <mxCell id="yattQfk-8Gp9yaDiqW34-23" value="成功" style="edgeLabel;html=1;align=center;verticalAlign=middle;resizable=0;points=[];fontColor=#000000;" parent="yattQfk-8Gp9yaDiqW34-22" vertex="1" connectable="0">
          <mxGeometry x="-0.3167" y="3" relative="1" as="geometry">
            <mxPoint as="offset" />
          </mxGeometry>
        </mxCell>
        <mxCell id="yattQfk-8Gp9yaDiqW34-24" style="edgeStyle=orthogonalEdgeStyle;rounded=0;orthogonalLoop=1;jettySize=auto;html=1;entryX=0.5;entryY=1;entryDx=0;entryDy=0;fontColor=#000000;" parent="1" source="yattQfk-8Gp9yaDiqW34-18" target="yattQfk-8Gp9yaDiqW34-3" edge="1">
          <mxGeometry relative="1" as="geometry" />
        </mxCell>
        <mxCell id="yattQfk-8Gp9yaDiqW34-25" value="失败" style="edgeLabel;html=1;align=center;verticalAlign=middle;resizable=0;points=[];fontColor=#000000;" parent="yattQfk-8Gp9yaDiqW34-24" vertex="1" connectable="0">
          <mxGeometry y="-2" relative="1" as="geometry">
            <mxPoint as="offset" />
          </mxGeometry>
        </mxCell>
        <mxCell id="yattQfk-8Gp9yaDiqW34-18" value="用key和value构造新节点，尝试通过cas将该节点设置为对应槽位的头节点" style="rhombus;whiteSpace=wrap;html=1;fontFamily=Helvetica;fontSize=12;fontColor=default;" parent="1" vertex="1">
          <mxGeometry x="360" y="790" width="140" height="130" as="geometry" />
        </mxCell>
        <mxCell id="yattQfk-8Gp9yaDiqW34-117" style="edgeStyle=orthogonalEdgeStyle;rounded=0;orthogonalLoop=1;jettySize=auto;html=1;entryX=0;entryY=0.5;entryDx=0;entryDy=0;fontColor=#000000;" parent="1" source="yattQfk-8Gp9yaDiqW34-21" target="yattQfk-8Gp9yaDiqW34-56" edge="1">
          <mxGeometry relative="1" as="geometry">
            <Array as="points">
              <mxPoint x="280" y="3300" />
            </Array>
          </mxGeometry>
        </mxCell>
        <mxCell id="yattQfk-8Gp9yaDiqW34-21" value="addCount(1L,binCount)" style="whiteSpace=wrap;html=1;fontColor=#000000;" parent="1" vertex="1">
          <mxGeometry x="210" y="3090" width="140" height="60" as="geometry" />
        </mxCell>
        <mxCell id="yattQfk-8Gp9yaDiqW34-29" style="edgeStyle=orthogonalEdgeStyle;rounded=0;orthogonalLoop=1;jettySize=auto;html=1;entryX=0;entryY=0.5;entryDx=0;entryDy=0;fontColor=#000000;" parent="1" source="yattQfk-8Gp9yaDiqW34-26" target="yattQfk-8Gp9yaDiqW34-28" edge="1">
          <mxGeometry relative="1" as="geometry" />
        </mxCell>
        <mxCell id="yattQfk-8Gp9yaDiqW34-31" value="是" style="edgeLabel;html=1;align=center;verticalAlign=middle;resizable=0;points=[];fontColor=#000000;" parent="yattQfk-8Gp9yaDiqW34-29" vertex="1" connectable="0">
          <mxGeometry x="-0.1546" y="1" relative="1" as="geometry">
            <mxPoint y="1" as="offset" />
          </mxGeometry>
        </mxCell>
        <mxCell id="yattQfk-8Gp9yaDiqW34-33" style="edgeStyle=orthogonalEdgeStyle;rounded=0;orthogonalLoop=1;jettySize=auto;html=1;entryX=0.5;entryY=0;entryDx=0;entryDy=0;fontColor=#000000;" parent="1" source="yattQfk-8Gp9yaDiqW34-26" target="yattQfk-8Gp9yaDiqW34-32" edge="1">
          <mxGeometry relative="1" as="geometry" />
        </mxCell>
        <mxCell id="80-vQDQAxwgAa98g4UPx-25" value="否" style="edgeLabel;html=1;align=center;verticalAlign=middle;resizable=0;points=[];" vertex="1" connectable="0" parent="yattQfk-8Gp9yaDiqW34-33">
          <mxGeometry x="-0.2375" y="-4" relative="1" as="geometry">
            <mxPoint as="offset" />
          </mxGeometry>
        </mxCell>
        <mxCell id="yattQfk-8Gp9yaDiqW34-26" value="(fh = f.hash) == MOVED;&lt;br&gt;是否在扩容" style="rhombus;whiteSpace=wrap;html=1;fontFamily=Helvetica;fontSize=12;fontColor=default;" parent="1" vertex="1">
          <mxGeometry x="590" y="980" width="140" height="130" as="geometry" />
        </mxCell>
        <mxCell id="yattQfk-8Gp9yaDiqW34-30" style="edgeStyle=orthogonalEdgeStyle;rounded=0;orthogonalLoop=1;jettySize=auto;html=1;entryX=0.5;entryY=0;entryDx=0;entryDy=0;fontColor=#000000;" parent="1" source="yattQfk-8Gp9yaDiqW34-28" target="yattQfk-8Gp9yaDiqW34-3" edge="1">
          <mxGeometry relative="1" as="geometry">
            <Array as="points">
              <mxPoint x="1030" y="1045" />
              <mxPoint x="1030" y="580" />
            </Array>
          </mxGeometry>
        </mxCell>
        <mxCell id="yattQfk-8Gp9yaDiqW34-28" value="tab = helpTransfer(tab,f)&lt;br&gt;协助扩容" style="whiteSpace=wrap;html=1;fontColor=#000000;" parent="1" vertex="1">
          <mxGeometry x="827" y="1015" width="160" height="60" as="geometry" />
        </mxCell>
        <mxCell id="yattQfk-8Gp9yaDiqW34-66" style="edgeStyle=orthogonalEdgeStyle;rounded=0;orthogonalLoop=1;jettySize=auto;html=1;entryX=0.5;entryY=0;entryDx=0;entryDy=0;fontColor=#000000;" parent="1" source="yattQfk-8Gp9yaDiqW34-32" target="yattQfk-8Gp9yaDiqW34-35" edge="1">
          <mxGeometry relative="1" as="geometry" />
        </mxCell>
        <mxCell id="yattQfk-8Gp9yaDiqW34-32" value="定义oldVal = null&lt;br&gt;头节点f用synchronized加锁" style="whiteSpace=wrap;html=1;fontColor=#000000;" parent="1" vertex="1">
          <mxGeometry x="560" y="1190" width="200" height="60" as="geometry" />
        </mxCell>
        <mxCell id="yattQfk-8Gp9yaDiqW34-63" style="edgeStyle=orthogonalEdgeStyle;rounded=0;orthogonalLoop=1;jettySize=auto;html=1;entryX=0.5;entryY=0;entryDx=0;entryDy=0;fontColor=#000000;" parent="1" source="yattQfk-8Gp9yaDiqW34-35" target="yattQfk-8Gp9yaDiqW34-62" edge="1">
          <mxGeometry relative="1" as="geometry" />
        </mxCell>
        <mxCell id="yattQfk-8Gp9yaDiqW34-64" value="是" style="edgeLabel;html=1;align=center;verticalAlign=middle;resizable=0;points=[];fontColor=#000000;" parent="yattQfk-8Gp9yaDiqW34-63" vertex="1" connectable="0">
          <mxGeometry x="-0.1583" y="-3" relative="1" as="geometry">
            <mxPoint x="-236" y="-3" as="offset" />
          </mxGeometry>
        </mxCell>
        <mxCell id="yattQfk-8Gp9yaDiqW34-70" style="edgeStyle=orthogonalEdgeStyle;rounded=0;orthogonalLoop=1;jettySize=auto;html=1;entryX=0.5;entryY=0;entryDx=0;entryDy=0;fontColor=#000000;" parent="1" source="yattQfk-8Gp9yaDiqW34-35" target="yattQfk-8Gp9yaDiqW34-96" edge="1">
          <mxGeometry relative="1" as="geometry" />
        </mxCell>
        <mxCell id="yattQfk-8Gp9yaDiqW34-71" value="否" style="edgeLabel;html=1;align=center;verticalAlign=middle;resizable=0;points=[];fontColor=#000000;" parent="yattQfk-8Gp9yaDiqW34-70" vertex="1" connectable="0">
          <mxGeometry x="-0.3125" y="2" relative="1" as="geometry">
            <mxPoint as="offset" />
          </mxGeometry>
        </mxCell>
        <mxCell id="yattQfk-8Gp9yaDiqW34-35" value="再次判断该槽位的头节点是否等于f" style="rhombus;whiteSpace=wrap;html=1;fontFamily=Helvetica;fontSize=12;fontColor=default;" parent="1" vertex="1">
          <mxGeometry x="590" y="1290" width="140" height="130" as="geometry" />
        </mxCell>
        <mxCell id="yattQfk-8Gp9yaDiqW34-41" style="edgeStyle=orthogonalEdgeStyle;rounded=0;orthogonalLoop=1;jettySize=auto;html=1;entryX=0.5;entryY=0;entryDx=0;entryDy=0;fontColor=#000000;" parent="1" source="yattQfk-8Gp9yaDiqW34-37" target="yattQfk-8Gp9yaDiqW34-40" edge="1">
          <mxGeometry relative="1" as="geometry" />
        </mxCell>
        <mxCell id="yattQfk-8Gp9yaDiqW34-42" value="true" style="edgeLabel;html=1;align=center;verticalAlign=middle;resizable=0;points=[];fontColor=#000000;" parent="yattQfk-8Gp9yaDiqW34-41" vertex="1" connectable="0">
          <mxGeometry x="-0.1444" relative="1" as="geometry">
            <mxPoint as="offset" />
          </mxGeometry>
        </mxCell>
        <mxCell id="yattQfk-8Gp9yaDiqW34-43" style="edgeStyle=orthogonalEdgeStyle;rounded=0;orthogonalLoop=1;jettySize=auto;html=1;fontColor=#000000;exitX=1;exitY=0.5;exitDx=0;exitDy=0;entryX=0.63;entryY=0.122;entryDx=0;entryDy=0;entryPerimeter=0;" parent="1" source="yattQfk-8Gp9yaDiqW34-37" target="yattQfk-8Gp9yaDiqW34-3" edge="1">
          <mxGeometry relative="1" as="geometry">
            <mxPoint x="460" y="580" as="targetPoint" />
            <Array as="points">
              <mxPoint x="1110" y="1615" />
              <mxPoint x="1110" y="540" />
              <mxPoint x="448" y="540" />
            </Array>
          </mxGeometry>
        </mxCell>
        <mxCell id="yattQfk-8Gp9yaDiqW34-44" value="false" style="edgeLabel;html=1;align=center;verticalAlign=middle;resizable=0;points=[];fontColor=#000000;" parent="yattQfk-8Gp9yaDiqW34-43" vertex="1" connectable="0">
          <mxGeometry x="-0.9242" y="-3" relative="1" as="geometry">
            <mxPoint y="1" as="offset" />
          </mxGeometry>
        </mxCell>
        <mxCell id="yattQfk-8Gp9yaDiqW34-37" value="binCount != 0" style="rhombus;whiteSpace=wrap;html=1;fontFamily=Helvetica;fontSize=12;fontColor=default;" parent="1" vertex="1">
          <mxGeometry x="590" y="1550" width="140" height="130" as="geometry" />
        </mxCell>
        <mxCell id="yattQfk-8Gp9yaDiqW34-46" style="edgeStyle=orthogonalEdgeStyle;rounded=0;orthogonalLoop=1;jettySize=auto;html=1;entryX=0.5;entryY=0;entryDx=0;entryDy=0;fontColor=#000000;" parent="1" source="yattQfk-8Gp9yaDiqW34-40" target="yattQfk-8Gp9yaDiqW34-45" edge="1">
          <mxGeometry relative="1" as="geometry" />
        </mxCell>
        <mxCell id="yattQfk-8Gp9yaDiqW34-47" value="是" style="edgeLabel;html=1;align=center;verticalAlign=middle;resizable=0;points=[];fontColor=#000000;" parent="yattQfk-8Gp9yaDiqW34-46" vertex="1" connectable="0">
          <mxGeometry x="0.0667" y="-2" relative="1" as="geometry">
            <mxPoint as="offset" />
          </mxGeometry>
        </mxCell>
        <mxCell id="yattQfk-8Gp9yaDiqW34-68" style="edgeStyle=orthogonalEdgeStyle;rounded=0;orthogonalLoop=1;jettySize=auto;html=1;entryX=1;entryY=0.5;entryDx=0;entryDy=0;fontColor=#000000;" parent="1" source="yattQfk-8Gp9yaDiqW34-40" target="yattQfk-8Gp9yaDiqW34-49" edge="1">
          <mxGeometry relative="1" as="geometry">
            <Array as="points">
              <mxPoint x="800" y="1795" />
              <mxPoint x="800" y="2155" />
            </Array>
          </mxGeometry>
        </mxCell>
        <mxCell id="yattQfk-8Gp9yaDiqW34-69" value="否" style="edgeLabel;html=1;align=center;verticalAlign=middle;resizable=0;points=[];fontColor=#000000;" parent="yattQfk-8Gp9yaDiqW34-68" vertex="1" connectable="0">
          <mxGeometry x="-0.166" relative="1" as="geometry">
            <mxPoint as="offset" />
          </mxGeometry>
        </mxCell>
        <mxCell id="yattQfk-8Gp9yaDiqW34-40" value="binCount &amp;gt; = TREEIFY_THRESHOLD" style="rhombus;whiteSpace=wrap;html=1;fontFamily=Helvetica;fontSize=12;fontColor=default;" parent="1" vertex="1">
          <mxGeometry x="590" y="1730" width="140" height="130" as="geometry" />
        </mxCell>
        <mxCell id="yattQfk-8Gp9yaDiqW34-50" style="edgeStyle=orthogonalEdgeStyle;rounded=0;orthogonalLoop=1;jettySize=auto;html=1;fontColor=#000000;" parent="1" source="yattQfk-8Gp9yaDiqW34-45" target="yattQfk-8Gp9yaDiqW34-49" edge="1">
          <mxGeometry relative="1" as="geometry" />
        </mxCell>
        <mxCell id="yattQfk-8Gp9yaDiqW34-45" value="链重构成红黑树&lt;br&gt;treeifyBin(tab,i)" style="whiteSpace=wrap;html=1;fontColor=#000000;" parent="1" vertex="1">
          <mxGeometry x="600" y="1920" width="120" height="60" as="geometry" />
        </mxCell>
        <mxCell id="yattQfk-8Gp9yaDiqW34-52" value="true" style="edgeStyle=orthogonalEdgeStyle;rounded=0;orthogonalLoop=1;jettySize=auto;html=1;entryX=0.5;entryY=0;entryDx=0;entryDy=0;fontColor=#000000;" parent="1" source="yattQfk-8Gp9yaDiqW34-49" target="yattQfk-8Gp9yaDiqW34-51" edge="1">
          <mxGeometry relative="1" as="geometry" />
        </mxCell>
        <mxCell id="yattQfk-8Gp9yaDiqW34-65" style="edgeStyle=orthogonalEdgeStyle;rounded=0;orthogonalLoop=1;jettySize=auto;html=1;fontColor=#000000;entryX=0.75;entryY=0;entryDx=0;entryDy=0;" parent="1" source="yattQfk-8Gp9yaDiqW34-49" target="yattQfk-8Gp9yaDiqW34-21" edge="1">
          <mxGeometry relative="1" as="geometry">
            <mxPoint x="150" y="3070" as="targetPoint" />
            <Array as="points">
              <mxPoint x="315" y="2155" />
            </Array>
          </mxGeometry>
        </mxCell>
        <mxCell id="yattQfk-8Gp9yaDiqW34-116" value="false" style="edgeLabel;html=1;align=center;verticalAlign=middle;resizable=0;points=[];fontColor=#000000;" parent="yattQfk-8Gp9yaDiqW34-65" vertex="1" connectable="0">
          <mxGeometry x="-0.2517" y="1" relative="1" as="geometry">
            <mxPoint x="359" y="-118" as="offset" />
          </mxGeometry>
        </mxCell>
        <mxCell id="yattQfk-8Gp9yaDiqW34-49" value="判断原节点的值是否为null&lt;br&gt;oldVal != null" style="rhombus;whiteSpace=wrap;html=1;fontFamily=Helvetica;fontSize=12;fontColor=default;" parent="1" vertex="1">
          <mxGeometry x="590" y="2090" width="140" height="130" as="geometry" />
        </mxCell>
        <mxCell id="yattQfk-8Gp9yaDiqW34-58" style="edgeStyle=orthogonalEdgeStyle;rounded=0;orthogonalLoop=1;jettySize=auto;html=1;fontColor=#000000;" parent="1" source="yattQfk-8Gp9yaDiqW34-51" target="yattQfk-8Gp9yaDiqW34-56" edge="1">
          <mxGeometry relative="1" as="geometry">
            <Array as="points">
              <mxPoint x="660" y="3300" />
            </Array>
          </mxGeometry>
        </mxCell>
        <mxCell id="yattQfk-8Gp9yaDiqW34-51" value="释放锁，&lt;br&gt;return oldVal" style="whiteSpace=wrap;html=1;fontColor=#000000;" parent="1" vertex="1">
          <mxGeometry x="600" y="2420" width="120" height="60" as="geometry" />
        </mxCell>
        <mxCell id="yattQfk-8Gp9yaDiqW34-56" value="end" style="whiteSpace=wrap;html=1;fontColor=#000000;" parent="1" vertex="1">
          <mxGeometry x="420" y="3270" width="120" height="60" as="geometry" />
        </mxCell>
        <mxCell id="yattQfk-8Gp9yaDiqW34-74" style="edgeStyle=orthogonalEdgeStyle;rounded=0;orthogonalLoop=1;jettySize=auto;html=1;entryX=0.5;entryY=0;entryDx=0;entryDy=0;fontColor=#000000;" parent="1" source="yattQfk-8Gp9yaDiqW34-62" target="yattQfk-8Gp9yaDiqW34-72" edge="1">
          <mxGeometry relative="1" as="geometry" />
        </mxCell>
        <mxCell id="yattQfk-8Gp9yaDiqW34-75" value="是" style="edgeLabel;html=1;align=center;verticalAlign=middle;resizable=0;points=[];fontColor=#000000;" parent="yattQfk-8Gp9yaDiqW34-74" vertex="1" connectable="0">
          <mxGeometry x="-0.082" y="2" relative="1" as="geometry">
            <mxPoint as="offset" />
          </mxGeometry>
        </mxCell>
        <mxCell id="yattQfk-8Gp9yaDiqW34-89" style="edgeStyle=orthogonalEdgeStyle;rounded=0;orthogonalLoop=1;jettySize=auto;html=1;entryX=0;entryY=0.5;entryDx=0;entryDy=0;fontColor=#000000;" parent="1" source="yattQfk-8Gp9yaDiqW34-62" target="yattQfk-8Gp9yaDiqW34-88" edge="1">
          <mxGeometry relative="1" as="geometry" />
        </mxCell>
        <mxCell id="yattQfk-8Gp9yaDiqW34-90" value="否" style="edgeLabel;html=1;align=center;verticalAlign=middle;resizable=0;points=[];fontColor=#000000;" parent="yattQfk-8Gp9yaDiqW34-89" vertex="1" connectable="0">
          <mxGeometry x="-0.0842" y="1" relative="1" as="geometry">
            <mxPoint y="1" as="offset" />
          </mxGeometry>
        </mxCell>
        <mxCell id="yattQfk-8Gp9yaDiqW34-62" value="fh &amp;gt;= 0" style="rhombus;whiteSpace=wrap;html=1;fontFamily=Helvetica;fontSize=12;fontColor=default;" parent="1" vertex="1">
          <mxGeometry x="1000" y="1689" width="140" height="130" as="geometry" />
        </mxCell>
        <mxCell id="yattQfk-8Gp9yaDiqW34-77" style="edgeStyle=orthogonalEdgeStyle;rounded=0;orthogonalLoop=1;jettySize=auto;html=1;entryX=0.5;entryY=0;entryDx=0;entryDy=0;fontColor=#000000;" parent="1" source="yattQfk-8Gp9yaDiqW34-72" target="yattQfk-8Gp9yaDiqW34-76" edge="1">
          <mxGeometry relative="1" as="geometry" />
        </mxCell>
        <mxCell id="yattQfk-8Gp9yaDiqW34-72" value="binCount = 1&lt;br&gt;e = f" style="whiteSpace=wrap;html=1;fontColor=#000000;" parent="1" vertex="1">
          <mxGeometry x="1010" y="1880" width="120" height="60" as="geometry" />
        </mxCell>
        <mxCell id="yattQfk-8Gp9yaDiqW34-81" value="是" style="edgeStyle=orthogonalEdgeStyle;rounded=0;orthogonalLoop=1;jettySize=auto;html=1;entryX=0.5;entryY=0;entryDx=0;entryDy=0;fontColor=#000000;" parent="1" source="yattQfk-8Gp9yaDiqW34-76" target="yattQfk-8Gp9yaDiqW34-80" edge="1">
          <mxGeometry relative="1" as="geometry" />
        </mxCell>
        <mxCell id="yattQfk-8Gp9yaDiqW34-105" style="edgeStyle=orthogonalEdgeStyle;rounded=0;orthogonalLoop=1;jettySize=auto;html=1;entryX=0.5;entryY=0;entryDx=0;entryDy=0;fontColor=#000000;" parent="1" source="yattQfk-8Gp9yaDiqW34-76" target="yattQfk-8Gp9yaDiqW34-104" edge="1">
          <mxGeometry relative="1" as="geometry">
            <Array as="points">
              <mxPoint x="1340" y="2290" />
            </Array>
          </mxGeometry>
        </mxCell>
        <mxCell id="yattQfk-8Gp9yaDiqW34-113" value="否" style="edgeLabel;html=1;align=center;verticalAlign=middle;resizable=0;points=[];fontColor=#000000;" parent="yattQfk-8Gp9yaDiqW34-105" vertex="1" connectable="0">
          <mxGeometry x="-0.6273" y="4" relative="1" as="geometry">
            <mxPoint y="1" as="offset" />
          </mxGeometry>
        </mxCell>
        <mxCell id="yattQfk-8Gp9yaDiqW34-76" value="判断是否可替换value&lt;br&gt;e.hash == hash &amp;amp;&amp;amp;&amp;nbsp;&lt;br&gt;((ek = e.key) == key ||&lt;br&gt;(ek != null &amp;amp;&amp;amp; key.equals(ek))))" style="rhombus;whiteSpace=wrap;html=1;fontFamily=Helvetica;fontSize=12;fontColor=default;" parent="1" vertex="1">
          <mxGeometry x="955" y="2160" width="230" height="130" as="geometry" />
        </mxCell>
        <mxCell id="yattQfk-8Gp9yaDiqW34-84" style="edgeStyle=orthogonalEdgeStyle;rounded=0;orthogonalLoop=1;jettySize=auto;html=1;entryX=0.5;entryY=0;entryDx=0;entryDy=0;fontColor=#000000;" parent="1" source="yattQfk-8Gp9yaDiqW34-80" target="yattQfk-8Gp9yaDiqW34-82" edge="1">
          <mxGeometry relative="1" as="geometry" />
        </mxCell>
        <mxCell id="yattQfk-8Gp9yaDiqW34-80" value="记录旧值&lt;br&gt;oldVal = e.val" style="whiteSpace=wrap;html=1;fontColor=#000000;" parent="1" vertex="1">
          <mxGeometry x="1010" y="2360" width="120" height="60" as="geometry" />
        </mxCell>
        <mxCell id="yattQfk-8Gp9yaDiqW34-85" style="edgeStyle=orthogonalEdgeStyle;rounded=0;orthogonalLoop=1;jettySize=auto;html=1;entryX=0.5;entryY=0;entryDx=0;entryDy=0;fontColor=#000000;" parent="1" source="yattQfk-8Gp9yaDiqW34-82" target="yattQfk-8Gp9yaDiqW34-83" edge="1">
          <mxGeometry relative="1" as="geometry" />
        </mxCell>
        <mxCell id="yattQfk-8Gp9yaDiqW34-86" value="否" style="edgeLabel;html=1;align=center;verticalAlign=middle;resizable=0;points=[];fontColor=#000000;" parent="yattQfk-8Gp9yaDiqW34-85" vertex="1" connectable="0">
          <mxGeometry x="-0.21" y="-1" relative="1" as="geometry">
            <mxPoint as="offset" />
          </mxGeometry>
        </mxCell>
        <mxCell id="yattQfk-8Gp9yaDiqW34-82" value="是否不存在才替换" style="rhombus;whiteSpace=wrap;html=1;fontFamily=Helvetica;fontSize=12;fontColor=default;" parent="1" vertex="1">
          <mxGeometry x="1000" y="2510" width="140" height="130" as="geometry" />
        </mxCell>
        <mxCell id="yattQfk-8Gp9yaDiqW34-87" style="edgeStyle=orthogonalEdgeStyle;rounded=0;orthogonalLoop=1;jettySize=auto;html=1;fontColor=#000000;entryX=0;entryY=0.5;entryDx=0;entryDy=0;" parent="1" source="yattQfk-8Gp9yaDiqW34-83" target="yattQfk-8Gp9yaDiqW34-96" edge="1">
          <mxGeometry relative="1" as="geometry">
            <mxPoint x="450" y="2050" as="targetPoint" />
            <Array as="points">
              <mxPoint x="510" y="2770" />
              <mxPoint x="510" y="1490" />
            </Array>
          </mxGeometry>
        </mxCell>
        <mxCell id="yattQfk-8Gp9yaDiqW34-83" value="替换节点e中的value&lt;br&gt;e.val = value" style="whiteSpace=wrap;html=1;fontColor=#000000;" parent="1" vertex="1">
          <mxGeometry x="1010" y="2740" width="120" height="60" as="geometry" />
        </mxCell>
        <mxCell id="yattQfk-8Gp9yaDiqW34-92" style="edgeStyle=orthogonalEdgeStyle;rounded=0;orthogonalLoop=1;jettySize=auto;html=1;entryX=0.5;entryY=0;entryDx=0;entryDy=0;fontColor=#000000;" parent="1" source="yattQfk-8Gp9yaDiqW34-88" target="yattQfk-8Gp9yaDiqW34-91" edge="1">
          <mxGeometry relative="1" as="geometry" />
        </mxCell>
        <mxCell id="yattQfk-8Gp9yaDiqW34-93" value="是" style="edgeLabel;html=1;align=center;verticalAlign=middle;resizable=0;points=[];fontColor=#000000;" parent="yattQfk-8Gp9yaDiqW34-92" vertex="1" connectable="0">
          <mxGeometry x="0.0589" y="1" relative="1" as="geometry">
            <mxPoint as="offset" />
          </mxGeometry>
        </mxCell>
        <mxCell id="yattQfk-8Gp9yaDiqW34-94" style="edgeStyle=orthogonalEdgeStyle;rounded=0;orthogonalLoop=1;jettySize=auto;html=1;fontColor=#000000;" parent="1" source="yattQfk-8Gp9yaDiqW34-88" target="yattQfk-8Gp9yaDiqW34-96" edge="1">
          <mxGeometry relative="1" as="geometry">
            <Array as="points">
              <mxPoint x="1400" y="1490" />
            </Array>
          </mxGeometry>
        </mxCell>
        <mxCell id="yattQfk-8Gp9yaDiqW34-95" value="否" style="edgeLabel;html=1;align=center;verticalAlign=middle;resizable=0;points=[];fontColor=#000000;" parent="yattQfk-8Gp9yaDiqW34-94" vertex="1" connectable="0">
          <mxGeometry x="-0.1991" y="-1" relative="1" as="geometry">
            <mxPoint as="offset" />
          </mxGeometry>
        </mxCell>
        <mxCell id="yattQfk-8Gp9yaDiqW34-88" value="f 是树节点？" style="rhombus;whiteSpace=wrap;html=1;fontFamily=Helvetica;fontSize=12;fontColor=default;" parent="1" vertex="1">
          <mxGeometry x="1340" y="1689" width="140" height="130" as="geometry" />
        </mxCell>
        <mxCell id="yattQfk-8Gp9yaDiqW34-99" style="edgeStyle=orthogonalEdgeStyle;rounded=0;orthogonalLoop=1;jettySize=auto;html=1;entryX=0.5;entryY=0;entryDx=0;entryDy=0;fontColor=#000000;" parent="1" source="yattQfk-8Gp9yaDiqW34-91" target="yattQfk-8Gp9yaDiqW34-98" edge="1">
          <mxGeometry relative="1" as="geometry" />
        </mxCell>
        <mxCell id="yattQfk-8Gp9yaDiqW34-91" value="尝试用树节点的插入策略并记录返回值&lt;br&gt;p = ((TreeBin&amp;lt;K,V&amp;gt;)f).putTreeVal(hash,key,value))&amp;nbsp;" style="whiteSpace=wrap;html=1;fontColor=#000000;" parent="1" vertex="1">
          <mxGeometry x="1250" y="1910" width="320" height="60" as="geometry" />
        </mxCell>
        <mxCell id="yattQfk-8Gp9yaDiqW34-97" style="edgeStyle=orthogonalEdgeStyle;rounded=0;orthogonalLoop=1;jettySize=auto;html=1;entryX=0.5;entryY=0;entryDx=0;entryDy=0;fontColor=#000000;" parent="1" source="yattQfk-8Gp9yaDiqW34-96" target="yattQfk-8Gp9yaDiqW34-37" edge="1">
          <mxGeometry relative="1" as="geometry" />
        </mxCell>
        <mxCell id="yattQfk-8Gp9yaDiqW34-96" value="释放f的锁" style="whiteSpace=wrap;html=1;fontColor=#000000;" parent="1" vertex="1">
          <mxGeometry x="600" y="1460" width="120" height="60" as="geometry" />
        </mxCell>
        <mxCell id="yattQfk-8Gp9yaDiqW34-100" style="edgeStyle=orthogonalEdgeStyle;rounded=0;orthogonalLoop=1;jettySize=auto;html=1;entryX=1;entryY=0.5;entryDx=0;entryDy=0;fontColor=#000000;" parent="1" source="yattQfk-8Gp9yaDiqW34-98" target="yattQfk-8Gp9yaDiqW34-82" edge="1">
          <mxGeometry relative="1" as="geometry">
            <Array as="points">
              <mxPoint x="1410" y="2575" />
            </Array>
          </mxGeometry>
        </mxCell>
        <mxCell id="yattQfk-8Gp9yaDiqW34-101" value="true" style="edgeLabel;html=1;align=center;verticalAlign=middle;resizable=0;points=[];fontColor=#000000;" parent="yattQfk-8Gp9yaDiqW34-100" vertex="1" connectable="0">
          <mxGeometry x="-0.6148" y="-1" relative="1" as="geometry">
            <mxPoint x="1" y="-110" as="offset" />
          </mxGeometry>
        </mxCell>
        <mxCell id="yattQfk-8Gp9yaDiqW34-102" style="edgeStyle=orthogonalEdgeStyle;rounded=0;orthogonalLoop=1;jettySize=auto;html=1;fontColor=#000000;entryX=1;entryY=0.75;entryDx=0;entryDy=0;" parent="1" source="yattQfk-8Gp9yaDiqW34-98" target="yattQfk-8Gp9yaDiqW34-96" edge="1">
          <mxGeometry relative="1" as="geometry">
            <mxPoint x="920" y="1910" as="targetPoint" />
            <Array as="points">
              <mxPoint x="1610" y="2105" />
              <mxPoint x="1610" y="1505" />
            </Array>
          </mxGeometry>
        </mxCell>
        <mxCell id="yattQfk-8Gp9yaDiqW34-120" value="false" style="edgeLabel;html=1;align=center;verticalAlign=middle;resizable=0;points=[];fontColor=#000000;" parent="yattQfk-8Gp9yaDiqW34-102" vertex="1" connectable="0">
          <mxGeometry x="-0.6672" y="-5" relative="1" as="geometry">
            <mxPoint x="-75" y="135" as="offset" />
          </mxGeometry>
        </mxCell>
        <mxCell id="yattQfk-8Gp9yaDiqW34-98" value="p != null" style="rhombus;whiteSpace=wrap;html=1;fontFamily=Helvetica;fontSize=12;fontColor=default;" parent="1" vertex="1">
          <mxGeometry x="1340" y="2040" width="140" height="130" as="geometry" />
        </mxCell>
        <mxCell id="yattQfk-8Gp9yaDiqW34-114" style="edgeStyle=orthogonalEdgeStyle;rounded=0;orthogonalLoop=1;jettySize=auto;html=1;fontColor=#000000;entryX=1;entryY=0.5;entryDx=0;entryDy=0;" parent="1" source="yattQfk-8Gp9yaDiqW34-103" target="yattQfk-8Gp9yaDiqW34-76" edge="1">
          <mxGeometry relative="1" as="geometry">
            <mxPoint x="1550" y="2264" as="targetPoint" />
            <Array as="points">
              <mxPoint x="1610" y="2225" />
            </Array>
          </mxGeometry>
        </mxCell>
        <mxCell id="yattQfk-8Gp9yaDiqW34-103" value="++binCount" style="whiteSpace=wrap;html=1;fontColor=#000000;" parent="1" vertex="1">
          <mxGeometry x="1550" y="2893" width="120" height="60" as="geometry" />
        </mxCell>
        <mxCell id="yattQfk-8Gp9yaDiqW34-108" style="edgeStyle=orthogonalEdgeStyle;rounded=0;orthogonalLoop=1;jettySize=auto;html=1;entryX=0.5;entryY=0;entryDx=0;entryDy=0;fontColor=#000000;" parent="1" source="yattQfk-8Gp9yaDiqW34-104" target="yattQfk-8Gp9yaDiqW34-106" edge="1">
          <mxGeometry relative="1" as="geometry" />
        </mxCell>
        <mxCell id="yattQfk-8Gp9yaDiqW34-104" value="pred = e" style="whiteSpace=wrap;html=1;fontColor=#000000;" parent="1" vertex="1">
          <mxGeometry x="1280" y="2680" width="120" height="60" as="geometry" />
        </mxCell>
        <mxCell id="yattQfk-8Gp9yaDiqW34-109" style="edgeStyle=orthogonalEdgeStyle;rounded=0;orthogonalLoop=1;jettySize=auto;html=1;entryX=0.5;entryY=0;entryDx=0;entryDy=0;fontColor=#000000;" parent="1" source="yattQfk-8Gp9yaDiqW34-106" target="yattQfk-8Gp9yaDiqW34-107" edge="1">
          <mxGeometry relative="1" as="geometry" />
        </mxCell>
        <mxCell id="yattQfk-8Gp9yaDiqW34-110" value="true" style="edgeLabel;html=1;align=center;verticalAlign=middle;resizable=0;points=[];fontColor=#000000;" parent="yattQfk-8Gp9yaDiqW34-109" vertex="1" connectable="0">
          <mxGeometry x="-0.2073" y="3" relative="1" as="geometry">
            <mxPoint as="offset" />
          </mxGeometry>
        </mxCell>
        <mxCell id="yattQfk-8Gp9yaDiqW34-111" style="edgeStyle=orthogonalEdgeStyle;rounded=0;orthogonalLoop=1;jettySize=auto;html=1;entryX=0;entryY=0.5;entryDx=0;entryDy=0;fontColor=#000000;" parent="1" source="yattQfk-8Gp9yaDiqW34-106" target="yattQfk-8Gp9yaDiqW34-103" edge="1">
          <mxGeometry relative="1" as="geometry" />
        </mxCell>
        <mxCell id="yattQfk-8Gp9yaDiqW34-112" value="false" style="edgeLabel;html=1;align=center;verticalAlign=middle;resizable=0;points=[];fontColor=#000000;" parent="yattQfk-8Gp9yaDiqW34-111" vertex="1" connectable="0">
          <mxGeometry x="-0.3571" y="-2" relative="1" as="geometry">
            <mxPoint y="1" as="offset" />
          </mxGeometry>
        </mxCell>
        <mxCell id="yattQfk-8Gp9yaDiqW34-106" value="(e = e.next) != null" style="rhombus;whiteSpace=wrap;html=1;fontFamily=Helvetica;fontSize=12;fontColor=default;" parent="1" vertex="1">
          <mxGeometry x="1270" y="2858" width="140" height="130" as="geometry" />
        </mxCell>
        <mxCell id="yattQfk-8Gp9yaDiqW34-115" style="edgeStyle=orthogonalEdgeStyle;rounded=0;orthogonalLoop=1;jettySize=auto;html=1;fontColor=#000000;entryX=0;entryY=0.25;entryDx=0;entryDy=0;" parent="1" source="yattQfk-8Gp9yaDiqW34-107" target="yattQfk-8Gp9yaDiqW34-96" edge="1">
          <mxGeometry relative="1" as="geometry">
            <mxPoint x="420" y="1570" as="targetPoint" />
            <Array as="points">
              <mxPoint x="460" y="3100" />
              <mxPoint x="460" y="1475" />
            </Array>
          </mxGeometry>
        </mxCell>
        <mxCell id="yattQfk-8Gp9yaDiqW34-107" value="构造新节点插入到e末尾&lt;br&gt;pred.next = new Node&amp;lt;K,V&amp;gt;(hash,key,value,null)" style="whiteSpace=wrap;html=1;fontColor=#000000;" parent="1" vertex="1">
          <mxGeometry x="1195" y="3070" width="290" height="60" as="geometry" />
        </mxCell>
        <mxCell id="yattQfk-8Gp9yaDiqW34-118" value="" style="shape=flexArrow;endArrow=classic;html=1;rounded=0;fontColor=#000000;exitX=1;exitY=0;exitDx=0;exitDy=0;entryX=0;entryY=0.5;entryDx=0;entryDy=0;" parent="1" source="yattQfk-8Gp9yaDiqW34-37" target="yattQfk-8Gp9yaDiqW34-119" edge="1">
          <mxGeometry width="50" height="50" relative="1" as="geometry">
            <mxPoint x="520" y="1720" as="sourcePoint" />
            <mxPoint x="760" y="1550" as="targetPoint" />
          </mxGeometry>
        </mxCell>
        <mxCell id="yattQfk-8Gp9yaDiqW34-119" value="是否已执行操作" style="shape=document;whiteSpace=wrap;html=1;boundedLbl=1;fontColor=#000000;" parent="1" vertex="1">
          <mxGeometry x="770" y="1530" width="120" height="50" as="geometry" />
        </mxCell>
        <mxCell id="80-vQDQAxwgAa98g4UPx-1" value="" style="shape=flexArrow;endArrow=classic;html=1;rounded=0;" edge="1" parent="1">
          <mxGeometry width="50" height="50" relative="1" as="geometry">
            <mxPoint x="540" y="80" as="sourcePoint" />
            <mxPoint x="2260" y="70" as="targetPoint" />
          </mxGeometry>
        </mxCell>
        <mxCell id="80-vQDQAxwgAa98g4UPx-4" style="edgeStyle=orthogonalEdgeStyle;rounded=0;orthogonalLoop=1;jettySize=auto;html=1;" edge="1" parent="1" source="80-vQDQAxwgAa98g4UPx-2" target="80-vQDQAxwgAa98g4UPx-3">
          <mxGeometry relative="1" as="geometry" />
        </mxCell>
        <mxCell id="80-vQDQAxwgAa98g4UPx-2" value="start" style="whiteSpace=wrap;html=1;" vertex="1" parent="1">
          <mxGeometry x="2280" y="40" width="120" height="60" as="geometry" />
        </mxCell>
        <mxCell id="80-vQDQAxwgAa98g4UPx-6" style="edgeStyle=orthogonalEdgeStyle;rounded=0;orthogonalLoop=1;jettySize=auto;html=1;entryX=0.5;entryY=0;entryDx=0;entryDy=0;" edge="1" parent="1" source="80-vQDQAxwgAa98g4UPx-3" target="80-vQDQAxwgAa98g4UPx-5">
          <mxGeometry relative="1" as="geometry" />
        </mxCell>
        <mxCell id="80-vQDQAxwgAa98g4UPx-3" value="参数合法性交验" style="whiteSpace=wrap;html=1;" vertex="1" parent="1">
          <mxGeometry x="2280" y="170" width="120" height="60" as="geometry" />
        </mxCell>
        <mxCell id="80-vQDQAxwgAa98g4UPx-13" style="edgeStyle=orthogonalEdgeStyle;rounded=0;orthogonalLoop=1;jettySize=auto;html=1;" edge="1" parent="1" source="80-vQDQAxwgAa98g4UPx-5" target="80-vQDQAxwgAa98g4UPx-7">
          <mxGeometry relative="1" as="geometry" />
        </mxCell>
        <mxCell id="80-vQDQAxwgAa98g4UPx-5" value="计算hash值" style="whiteSpace=wrap;html=1;" vertex="1" parent="1">
          <mxGeometry x="2280" y="300" width="120" height="60" as="geometry" />
        </mxCell>
        <mxCell id="80-vQDQAxwgAa98g4UPx-10" style="edgeStyle=orthogonalEdgeStyle;rounded=0;orthogonalLoop=1;jettySize=auto;html=1;entryX=1;entryY=0.5;entryDx=0;entryDy=0;" edge="1" parent="1" source="80-vQDQAxwgAa98g4UPx-7" target="80-vQDQAxwgAa98g4UPx-8">
          <mxGeometry relative="1" as="geometry" />
        </mxCell>
        <mxCell id="80-vQDQAxwgAa98g4UPx-12" value="否" style="edgeLabel;html=1;align=center;verticalAlign=middle;resizable=0;points=[];" vertex="1" connectable="0" parent="80-vQDQAxwgAa98g4UPx-10">
          <mxGeometry x="-0.0533" y="3" relative="1" as="geometry">
            <mxPoint as="offset" />
          </mxGeometry>
        </mxCell>
        <mxCell id="80-vQDQAxwgAa98g4UPx-15" style="edgeStyle=orthogonalEdgeStyle;rounded=0;orthogonalLoop=1;jettySize=auto;html=1;entryX=0.5;entryY=0;entryDx=0;entryDy=0;" edge="1" parent="1" source="80-vQDQAxwgAa98g4UPx-7" target="80-vQDQAxwgAa98g4UPx-14">
          <mxGeometry relative="1" as="geometry" />
        </mxCell>
        <mxCell id="80-vQDQAxwgAa98g4UPx-65" value="是" style="edgeLabel;html=1;align=center;verticalAlign=middle;resizable=0;points=[];" vertex="1" connectable="0" parent="80-vQDQAxwgAa98g4UPx-15">
          <mxGeometry x="-0.125" y="-2" relative="1" as="geometry">
            <mxPoint as="offset" />
          </mxGeometry>
        </mxCell>
        <mxCell id="80-vQDQAxwgAa98g4UPx-7" value="已初始化？" style="rhombus;whiteSpace=wrap;html=1;fontFamily=Helvetica;fontSize=12;fontColor=default;" vertex="1" parent="1">
          <mxGeometry x="2270" y="440" width="140" height="130" as="geometry" />
        </mxCell>
        <mxCell id="80-vQDQAxwgAa98g4UPx-11" style="edgeStyle=orthogonalEdgeStyle;rounded=0;orthogonalLoop=1;jettySize=auto;html=1;entryX=0.5;entryY=0;entryDx=0;entryDy=0;" edge="1" parent="1" source="80-vQDQAxwgAa98g4UPx-8" target="80-vQDQAxwgAa98g4UPx-7">
          <mxGeometry relative="1" as="geometry">
            <Array as="points">
              <mxPoint x="2060" y="440" />
            </Array>
          </mxGeometry>
        </mxCell>
        <mxCell id="80-vQDQAxwgAa98g4UPx-8" value="初始化&lt;br&gt;&lt;font color=&quot;#0000ff&quot;&gt;initTable&lt;/font&gt;" style="whiteSpace=wrap;html=1;" vertex="1" parent="1">
          <mxGeometry x="2000" y="475" width="120" height="60" as="geometry" />
        </mxCell>
        <mxCell id="80-vQDQAxwgAa98g4UPx-17" style="edgeStyle=orthogonalEdgeStyle;rounded=0;orthogonalLoop=1;jettySize=auto;html=1;entryX=0.5;entryY=0;entryDx=0;entryDy=0;" edge="1" parent="1" source="80-vQDQAxwgAa98g4UPx-14" target="80-vQDQAxwgAa98g4UPx-16">
          <mxGeometry relative="1" as="geometry" />
        </mxCell>
        <mxCell id="80-vQDQAxwgAa98g4UPx-14" value="根据hash计算出在table中的槽位，并获取该位置节点" style="whiteSpace=wrap;html=1;" vertex="1" parent="1">
          <mxGeometry x="2280" y="650" width="120" height="60" as="geometry" />
        </mxCell>
        <mxCell id="80-vQDQAxwgAa98g4UPx-20" style="edgeStyle=orthogonalEdgeStyle;rounded=0;orthogonalLoop=1;jettySize=auto;html=1;entryX=1;entryY=0.5;entryDx=0;entryDy=0;" edge="1" parent="1" source="80-vQDQAxwgAa98g4UPx-16" target="80-vQDQAxwgAa98g4UPx-19">
          <mxGeometry relative="1" as="geometry" />
        </mxCell>
        <mxCell id="80-vQDQAxwgAa98g4UPx-21" value="是" style="edgeLabel;html=1;align=center;verticalAlign=middle;resizable=0;points=[];" vertex="1" connectable="0" parent="80-vQDQAxwgAa98g4UPx-20">
          <mxGeometry x="-0.2" y="4" relative="1" as="geometry">
            <mxPoint as="offset" />
          </mxGeometry>
        </mxCell>
        <mxCell id="80-vQDQAxwgAa98g4UPx-26" style="edgeStyle=orthogonalEdgeStyle;rounded=0;orthogonalLoop=1;jettySize=auto;html=1;entryX=0.5;entryY=0;entryDx=0;entryDy=0;" edge="1" parent="1" source="80-vQDQAxwgAa98g4UPx-16" target="80-vQDQAxwgAa98g4UPx-27">
          <mxGeometry relative="1" as="geometry">
            <mxPoint x="2340" y="980" as="targetPoint" />
          </mxGeometry>
        </mxCell>
        <mxCell id="80-vQDQAxwgAa98g4UPx-32" value="否" style="edgeLabel;html=1;align=center;verticalAlign=middle;resizable=0;points=[];" vertex="1" connectable="0" parent="80-vQDQAxwgAa98g4UPx-26">
          <mxGeometry x="-0.0833" y="-3" relative="1" as="geometry">
            <mxPoint as="offset" />
          </mxGeometry>
        </mxCell>
        <mxCell id="80-vQDQAxwgAa98g4UPx-16" value="节点为空？" style="rhombus;whiteSpace=wrap;html=1;fontFamily=Helvetica;fontSize=12;fontColor=default;" vertex="1" parent="1">
          <mxGeometry x="2270" y="780" width="140" height="130" as="geometry" />
        </mxCell>
        <mxCell id="80-vQDQAxwgAa98g4UPx-22" style="edgeStyle=orthogonalEdgeStyle;rounded=0;orthogonalLoop=1;jettySize=auto;html=1;entryX=0;entryY=0.5;entryDx=0;entryDy=0;" edge="1" parent="1" source="80-vQDQAxwgAa98g4UPx-19" target="80-vQDQAxwgAa98g4UPx-14">
          <mxGeometry relative="1" as="geometry">
            <Array as="points">
              <mxPoint x="2080" y="680" />
            </Array>
          </mxGeometry>
        </mxCell>
        <mxCell id="80-vQDQAxwgAa98g4UPx-24" value="失败" style="edgeLabel;html=1;align=center;verticalAlign=middle;resizable=0;points=[];" vertex="1" connectable="0" parent="80-vQDQAxwgAa98g4UPx-22">
          <mxGeometry x="-0.65" y="3" relative="1" as="geometry">
            <mxPoint y="1" as="offset" />
          </mxGeometry>
        </mxCell>
        <mxCell id="80-vQDQAxwgAa98g4UPx-64" style="edgeStyle=orthogonalEdgeStyle;rounded=0;orthogonalLoop=1;jettySize=auto;html=1;" edge="1" parent="1" source="80-vQDQAxwgAa98g4UPx-19" target="80-vQDQAxwgAa98g4UPx-59">
          <mxGeometry relative="1" as="geometry">
            <mxPoint x="1760" y="1410" as="targetPoint" />
            <Array as="points">
              <mxPoint x="1810" y="845" />
              <mxPoint x="1810" y="2050" />
            </Array>
          </mxGeometry>
        </mxCell>
        <mxCell id="80-vQDQAxwgAa98g4UPx-19" value="构造节点，cas替换头节点" style="rhombus;whiteSpace=wrap;html=1;fontFamily=Helvetica;fontSize=12;fontColor=default;" vertex="1" parent="1">
          <mxGeometry x="2010" y="780" width="140" height="130" as="geometry" />
        </mxCell>
        <mxCell id="80-vQDQAxwgAa98g4UPx-29" style="edgeStyle=orthogonalEdgeStyle;rounded=0;orthogonalLoop=1;jettySize=auto;html=1;entryX=0;entryY=0.5;entryDx=0;entryDy=0;" edge="1" parent="1" source="80-vQDQAxwgAa98g4UPx-27" target="80-vQDQAxwgAa98g4UPx-28">
          <mxGeometry relative="1" as="geometry" />
        </mxCell>
        <mxCell id="80-vQDQAxwgAa98g4UPx-30" value="是" style="edgeLabel;html=1;align=center;verticalAlign=middle;resizable=0;points=[];" vertex="1" connectable="0" parent="80-vQDQAxwgAa98g4UPx-29">
          <mxGeometry x="-0.0667" y="4" relative="1" as="geometry">
            <mxPoint as="offset" />
          </mxGeometry>
        </mxCell>
        <mxCell id="80-vQDQAxwgAa98g4UPx-47" style="edgeStyle=orthogonalEdgeStyle;rounded=0;orthogonalLoop=1;jettySize=auto;html=1;entryX=0.5;entryY=0;entryDx=0;entryDy=0;" edge="1" parent="1" source="80-vQDQAxwgAa98g4UPx-27" target="80-vQDQAxwgAa98g4UPx-46">
          <mxGeometry relative="1" as="geometry" />
        </mxCell>
        <mxCell id="80-vQDQAxwgAa98g4UPx-48" value="否" style="edgeLabel;html=1;align=center;verticalAlign=middle;resizable=0;points=[];" vertex="1" connectable="0" parent="80-vQDQAxwgAa98g4UPx-47">
          <mxGeometry x="-0.3" relative="1" as="geometry">
            <mxPoint as="offset" />
          </mxGeometry>
        </mxCell>
        <mxCell id="80-vQDQAxwgAa98g4UPx-27" value="是否在扩容" style="rhombus;whiteSpace=wrap;html=1;fontFamily=Helvetica;fontSize=12;fontColor=default;" vertex="1" parent="1">
          <mxGeometry x="2270" y="970" width="140" height="130" as="geometry" />
        </mxCell>
        <mxCell id="80-vQDQAxwgAa98g4UPx-31" style="edgeStyle=orthogonalEdgeStyle;rounded=0;orthogonalLoop=1;jettySize=auto;html=1;entryX=1;entryY=0.5;entryDx=0;entryDy=0;" edge="1" parent="1" source="80-vQDQAxwgAa98g4UPx-28" target="80-vQDQAxwgAa98g4UPx-14">
          <mxGeometry relative="1" as="geometry">
            <Array as="points">
              <mxPoint x="2560" y="680" />
            </Array>
          </mxGeometry>
        </mxCell>
        <mxCell id="80-vQDQAxwgAa98g4UPx-28" value="协助扩容&lt;br&gt;&lt;font color=&quot;#0000ff&quot;&gt;helpTransfer&lt;/font&gt;" style="whiteSpace=wrap;html=1;" vertex="1" parent="1">
          <mxGeometry x="2500" y="1005" width="120" height="60" as="geometry" />
        </mxCell>
        <mxCell id="80-vQDQAxwgAa98g4UPx-38" style="edgeStyle=orthogonalEdgeStyle;rounded=0;orthogonalLoop=1;jettySize=auto;html=1;entryX=0.5;entryY=0;entryDx=0;entryDy=0;" edge="1" parent="1" source="80-vQDQAxwgAa98g4UPx-33" target="80-vQDQAxwgAa98g4UPx-35">
          <mxGeometry relative="1" as="geometry" />
        </mxCell>
        <mxCell id="80-vQDQAxwgAa98g4UPx-33" value="头节点加synchronized锁" style="whiteSpace=wrap;html=1;" vertex="1" parent="1">
          <mxGeometry x="2280" y="1340" width="120" height="60" as="geometry" />
        </mxCell>
        <mxCell id="80-vQDQAxwgAa98g4UPx-41" style="edgeStyle=orthogonalEdgeStyle;rounded=0;orthogonalLoop=1;jettySize=auto;html=1;entryX=0.5;entryY=0;entryDx=0;entryDy=0;" edge="1" parent="1" source="80-vQDQAxwgAa98g4UPx-35" target="80-vQDQAxwgAa98g4UPx-40">
          <mxGeometry relative="1" as="geometry" />
        </mxCell>
        <mxCell id="80-vQDQAxwgAa98g4UPx-43" value="否" style="edgeLabel;html=1;align=center;verticalAlign=middle;resizable=0;points=[];" vertex="1" connectable="0" parent="80-vQDQAxwgAa98g4UPx-41">
          <mxGeometry x="0.15" y="-2" relative="1" as="geometry">
            <mxPoint as="offset" />
          </mxGeometry>
        </mxCell>
        <mxCell id="80-vQDQAxwgAa98g4UPx-54" style="edgeStyle=orthogonalEdgeStyle;rounded=0;orthogonalLoop=1;jettySize=auto;html=1;entryX=1;entryY=0.5;entryDx=0;entryDy=0;" edge="1" parent="1" source="80-vQDQAxwgAa98g4UPx-35" target="80-vQDQAxwgAa98g4UPx-53">
          <mxGeometry relative="1" as="geometry" />
        </mxCell>
        <mxCell id="80-vQDQAxwgAa98g4UPx-66" value="是" style="edgeLabel;html=1;align=center;verticalAlign=middle;resizable=0;points=[];" vertex="1" connectable="0" parent="80-vQDQAxwgAa98g4UPx-54">
          <mxGeometry x="0.2333" y="2" relative="1" as="geometry">
            <mxPoint as="offset" />
          </mxGeometry>
        </mxCell>
        <mxCell id="80-vQDQAxwgAa98g4UPx-35" value="再检查一次取到的头节点是否等于tab中该槽位的头节点" style="rhombus;whiteSpace=wrap;html=1;fontFamily=Helvetica;fontSize=12;fontColor=default;" vertex="1" parent="1">
          <mxGeometry x="2270" y="1490" width="140" height="130" as="geometry" />
        </mxCell>
        <mxCell id="80-vQDQAxwgAa98g4UPx-36" value="避免被其他线程处理过了，类似于DCL单例构造" style="shape=document;whiteSpace=wrap;html=1;boundedLbl=1;" vertex="1" parent="1">
          <mxGeometry x="2460" y="1450" width="140" height="80" as="geometry" />
        </mxCell>
        <mxCell id="80-vQDQAxwgAa98g4UPx-37" value="" style="shape=flexArrow;endArrow=classic;html=1;rounded=0;entryX=0;entryY=0.25;entryDx=0;entryDy=0;exitX=1;exitY=0;exitDx=0;exitDy=0;" edge="1" parent="1" source="80-vQDQAxwgAa98g4UPx-35" target="80-vQDQAxwgAa98g4UPx-36">
          <mxGeometry width="50" height="50" relative="1" as="geometry">
            <mxPoint x="2190" y="1250" as="sourcePoint" />
            <mxPoint x="2240" y="1200" as="targetPoint" />
          </mxGeometry>
        </mxCell>
        <mxCell id="80-vQDQAxwgAa98g4UPx-42" style="edgeStyle=orthogonalEdgeStyle;rounded=0;orthogonalLoop=1;jettySize=auto;html=1;entryX=1;entryY=0.25;entryDx=0;entryDy=0;" edge="1" parent="1" source="80-vQDQAxwgAa98g4UPx-40" target="80-vQDQAxwgAa98g4UPx-14">
          <mxGeometry relative="1" as="geometry">
            <mxPoint x="2690" y="1030" as="targetPoint" />
            <Array as="points">
              <mxPoint x="2650" y="1750" />
              <mxPoint x="2650" y="665" />
            </Array>
          </mxGeometry>
        </mxCell>
        <mxCell id="80-vQDQAxwgAa98g4UPx-40" value="释放锁" style="whiteSpace=wrap;html=1;" vertex="1" parent="1">
          <mxGeometry x="2280" y="1724" width="120" height="60" as="geometry" />
        </mxCell>
        <mxCell id="80-vQDQAxwgAa98g4UPx-49" style="edgeStyle=orthogonalEdgeStyle;rounded=0;orthogonalLoop=1;jettySize=auto;html=1;" edge="1" parent="1" source="80-vQDQAxwgAa98g4UPx-46" target="80-vQDQAxwgAa98g4UPx-33">
          <mxGeometry relative="1" as="geometry" />
        </mxCell>
        <mxCell id="80-vQDQAxwgAa98g4UPx-50" value="否" style="edgeLabel;html=1;align=center;verticalAlign=middle;resizable=0;points=[];" vertex="1" connectable="0" parent="80-vQDQAxwgAa98g4UPx-49">
          <mxGeometry x="-0.1167" y="4" relative="1" as="geometry">
            <mxPoint y="1" as="offset" />
          </mxGeometry>
        </mxCell>
        <mxCell id="80-vQDQAxwgAa98g4UPx-52" style="edgeStyle=orthogonalEdgeStyle;rounded=0;orthogonalLoop=1;jettySize=auto;html=1;entryX=1;entryY=0.5;entryDx=0;entryDy=0;" edge="1" parent="1" source="80-vQDQAxwgAa98g4UPx-46" target="80-vQDQAxwgAa98g4UPx-51">
          <mxGeometry relative="1" as="geometry" />
        </mxCell>
        <mxCell id="80-vQDQAxwgAa98g4UPx-46" value="树节点？" style="rhombus;whiteSpace=wrap;html=1;fontFamily=Helvetica;fontSize=12;fontColor=default;" vertex="1" parent="1">
          <mxGeometry x="2270" y="1150" width="140" height="130" as="geometry" />
        </mxCell>
        <mxCell id="80-vQDQAxwgAa98g4UPx-63" style="edgeStyle=orthogonalEdgeStyle;rounded=0;orthogonalLoop=1;jettySize=auto;html=1;entryX=0;entryY=0.5;entryDx=0;entryDy=0;" edge="1" parent="1" source="80-vQDQAxwgAa98g4UPx-51" target="80-vQDQAxwgAa98g4UPx-59">
          <mxGeometry relative="1" as="geometry">
            <mxPoint x="1910" y="1490" as="targetPoint" />
            <Array as="points">
              <mxPoint x="1840" y="1215" />
              <mxPoint x="1840" y="2040" />
            </Array>
          </mxGeometry>
        </mxCell>
        <mxCell id="80-vQDQAxwgAa98g4UPx-51" value="按树节点的逻辑操作&lt;br&gt;putTreeVal" style="whiteSpace=wrap;html=1;" vertex="1" parent="1">
          <mxGeometry x="2022" y="1185" width="120" height="60" as="geometry" />
        </mxCell>
        <mxCell id="80-vQDQAxwgAa98g4UPx-56" style="edgeStyle=orthogonalEdgeStyle;rounded=0;orthogonalLoop=1;jettySize=auto;html=1;" edge="1" parent="1" source="80-vQDQAxwgAa98g4UPx-53" target="80-vQDQAxwgAa98g4UPx-55">
          <mxGeometry relative="1" as="geometry" />
        </mxCell>
        <mxCell id="80-vQDQAxwgAa98g4UPx-53" value="找到key相等的节点替换或者在链尾插入新节点" style="whiteSpace=wrap;html=1;" vertex="1" parent="1">
          <mxGeometry x="2030" y="1525" width="120" height="60" as="geometry" />
        </mxCell>
        <mxCell id="80-vQDQAxwgAa98g4UPx-58" style="edgeStyle=orthogonalEdgeStyle;rounded=0;orthogonalLoop=1;jettySize=auto;html=1;entryX=0.5;entryY=0;entryDx=0;entryDy=0;" edge="1" parent="1" source="80-vQDQAxwgAa98g4UPx-55" target="80-vQDQAxwgAa98g4UPx-57">
          <mxGeometry relative="1" as="geometry" />
        </mxCell>
        <mxCell id="80-vQDQAxwgAa98g4UPx-55" value="如果链长大于8就重构成红黑树" style="whiteSpace=wrap;html=1;" vertex="1" parent="1">
          <mxGeometry x="2030" y="1670" width="120" height="60" as="geometry" />
        </mxCell>
        <mxCell id="80-vQDQAxwgAa98g4UPx-60" style="edgeStyle=orthogonalEdgeStyle;rounded=0;orthogonalLoop=1;jettySize=auto;html=1;entryX=0.5;entryY=0;entryDx=0;entryDy=0;" edge="1" parent="1" source="80-vQDQAxwgAa98g4UPx-57" target="80-vQDQAxwgAa98g4UPx-59">
          <mxGeometry relative="1" as="geometry" />
        </mxCell>
        <mxCell id="80-vQDQAxwgAa98g4UPx-57" value="释放锁" style="whiteSpace=wrap;html=1;" vertex="1" parent="1">
          <mxGeometry x="2030" y="1850" width="120" height="60" as="geometry" />
        </mxCell>
        <mxCell id="80-vQDQAxwgAa98g4UPx-62" style="edgeStyle=orthogonalEdgeStyle;rounded=0;orthogonalLoop=1;jettySize=auto;html=1;" edge="1" parent="1" source="80-vQDQAxwgAa98g4UPx-59" target="80-vQDQAxwgAa98g4UPx-61">
          <mxGeometry relative="1" as="geometry" />
        </mxCell>
        <mxCell id="80-vQDQAxwgAa98g4UPx-59" value="元素个数统计&lt;br&gt;&lt;font color=&quot;#0000ff&quot;&gt;addCount&lt;/font&gt;" style="whiteSpace=wrap;html=1;" vertex="1" parent="1">
          <mxGeometry x="2030" y="2010" width="120" height="60" as="geometry" />
        </mxCell>
        <mxCell id="80-vQDQAxwgAa98g4UPx-61" value="end" style="whiteSpace=wrap;html=1;" vertex="1" parent="1">
          <mxGeometry x="2030" y="2180" width="120" height="60" as="geometry" />
        </mxCell>
        <mxCell id="80-vQDQAxwgAa98g4UPx-67" value="统计之后会判断是否需要扩容" style="shape=document;whiteSpace=wrap;html=1;boundedLbl=1;" vertex="1" parent="1">
          <mxGeometry x="2310" y="1960" width="190" height="80" as="geometry" />
        </mxCell>
        <mxCell id="80-vQDQAxwgAa98g4UPx-68" value="" style="shape=flexArrow;endArrow=classic;html=1;rounded=0;entryX=0;entryY=0.5;entryDx=0;entryDy=0;exitX=1;exitY=0.5;exitDx=0;exitDy=0;" edge="1" parent="1" source="80-vQDQAxwgAa98g4UPx-59" target="80-vQDQAxwgAa98g4UPx-67">
          <mxGeometry width="50" height="50" relative="1" as="geometry">
            <mxPoint x="2140" y="1950" as="sourcePoint" />
            <mxPoint x="2190" y="1900" as="targetPoint" />
          </mxGeometry>
        </mxCell>
        <mxCell id="80-vQDQAxwgAa98g4UPx-69" value="也有可能触发扩容" style="shape=document;whiteSpace=wrap;html=1;boundedLbl=1;" vertex="1" parent="1">
          <mxGeometry x="1860" y="1575" width="120" height="80" as="geometry" />
        </mxCell>
        <mxCell id="80-vQDQAxwgAa98g4UPx-70" value="" style="shape=flexArrow;endArrow=classic;html=1;rounded=0;exitX=0;exitY=0.75;exitDx=0;exitDy=0;" edge="1" parent="1" source="80-vQDQAxwgAa98g4UPx-55" target="80-vQDQAxwgAa98g4UPx-69">
          <mxGeometry width="50" height="50" relative="1" as="geometry">
            <mxPoint x="1900" y="1710" as="sourcePoint" />
            <mxPoint x="1950" y="1660" as="targetPoint" />
          </mxGeometry>
        </mxCell>
      </root>
    </mxGraphModel>
  </diagram>
  <diagram id="v3u47B8ZrRebYIyui9Jv" name="initTable">
    <mxGraphModel dx="1318" dy="726" grid="1" gridSize="10" guides="1" tooltips="1" connect="1" arrows="1" fold="1" page="1" pageScale="1" pageWidth="827" pageHeight="1169" math="0" shadow="0">
      <root>
        <mxCell id="0" />
        <mxCell id="1" parent="0" />
        <mxCell id="i_WLHFgb04rwcssGX6vp-4" style="edgeStyle=orthogonalEdgeStyle;rounded=0;orthogonalLoop=1;jettySize=auto;html=1;entryX=0.5;entryY=0;entryDx=0;entryDy=0;" parent="1" source="i_WLHFgb04rwcssGX6vp-1" target="i_WLHFgb04rwcssGX6vp-2" edge="1">
          <mxGeometry relative="1" as="geometry" />
        </mxCell>
        <mxCell id="i_WLHFgb04rwcssGX6vp-1" value="start" style="whiteSpace=wrap;html=1;" parent="1" vertex="1">
          <mxGeometry x="390" y="30" width="120" height="60" as="geometry" />
        </mxCell>
        <mxCell id="i_WLHFgb04rwcssGX6vp-5" style="edgeStyle=orthogonalEdgeStyle;rounded=0;orthogonalLoop=1;jettySize=auto;html=1;entryX=0.5;entryY=0;entryDx=0;entryDy=0;" parent="1" source="i_WLHFgb04rwcssGX6vp-2" target="i_WLHFgb04rwcssGX6vp-3" edge="1">
          <mxGeometry relative="1" as="geometry" />
        </mxCell>
        <mxCell id="i_WLHFgb04rwcssGX6vp-2" value="tab = &lt;font color=&quot;#ff00ff&quot;&gt;table&lt;/font&gt;" style="whiteSpace=wrap;html=1;" parent="1" vertex="1">
          <mxGeometry x="390" y="150" width="120" height="60" as="geometry" />
        </mxCell>
        <mxCell id="i_WLHFgb04rwcssGX6vp-9" style="edgeStyle=orthogonalEdgeStyle;rounded=0;orthogonalLoop=1;jettySize=auto;html=1;entryX=0.5;entryY=0;entryDx=0;entryDy=0;" parent="1" source="i_WLHFgb04rwcssGX6vp-3" target="i_WLHFgb04rwcssGX6vp-6" edge="1">
          <mxGeometry relative="1" as="geometry">
            <mxPoint x="240" y="1060" as="targetPoint" />
          </mxGeometry>
        </mxCell>
        <mxCell id="i_WLHFgb04rwcssGX6vp-10" value="否" style="edgeLabel;html=1;align=center;verticalAlign=middle;resizable=0;points=[];" parent="i_WLHFgb04rwcssGX6vp-9" vertex="1" connectable="0">
          <mxGeometry x="-0.7354" y="-2" relative="1" as="geometry">
            <mxPoint as="offset" />
          </mxGeometry>
        </mxCell>
        <mxCell id="i_WLHFgb04rwcssGX6vp-13" style="edgeStyle=orthogonalEdgeStyle;rounded=0;orthogonalLoop=1;jettySize=auto;html=1;entryX=0;entryY=0.5;entryDx=0;entryDy=0;fontColor=#FF00FF;" parent="1" source="i_WLHFgb04rwcssGX6vp-3" target="i_WLHFgb04rwcssGX6vp-12" edge="1">
          <mxGeometry relative="1" as="geometry" />
        </mxCell>
        <mxCell id="zyRSz5ip37z3qWV7Lry0-3" value="是" style="edgeLabel;html=1;align=center;verticalAlign=middle;resizable=0;points=[];fontColor=#000000;" parent="i_WLHFgb04rwcssGX6vp-13" vertex="1" connectable="0">
          <mxGeometry x="-0.2299" y="5" relative="1" as="geometry">
            <mxPoint y="1" as="offset" />
          </mxGeometry>
        </mxCell>
        <mxCell id="i_WLHFgb04rwcssGX6vp-3" value="检查tab是否为空，&lt;br&gt;是否还没初始化" style="rhombus;whiteSpace=wrap;html=1;fontFamily=Helvetica;fontSize=12;fontColor=default;" parent="1" vertex="1">
          <mxGeometry x="380" y="290" width="140" height="130" as="geometry" />
        </mxCell>
        <mxCell id="i_WLHFgb04rwcssGX6vp-8" style="edgeStyle=orthogonalEdgeStyle;rounded=0;orthogonalLoop=1;jettySize=auto;html=1;" parent="1" source="i_WLHFgb04rwcssGX6vp-6" target="i_WLHFgb04rwcssGX6vp-7" edge="1">
          <mxGeometry relative="1" as="geometry" />
        </mxCell>
        <mxCell id="i_WLHFgb04rwcssGX6vp-6" value="return tab" style="whiteSpace=wrap;html=1;" parent="1" vertex="1">
          <mxGeometry x="240" y="930" width="120" height="60" as="geometry" />
        </mxCell>
        <mxCell id="i_WLHFgb04rwcssGX6vp-7" value="end" style="whiteSpace=wrap;html=1;" parent="1" vertex="1">
          <mxGeometry x="240" y="1070" width="120" height="60" as="geometry" />
        </mxCell>
        <mxCell id="zyRSz5ip37z3qWV7Lry0-2" style="edgeStyle=orthogonalEdgeStyle;rounded=0;orthogonalLoop=1;jettySize=auto;html=1;fontColor=#000000;" parent="1" source="i_WLHFgb04rwcssGX6vp-11" target="zyRSz5ip37z3qWV7Lry0-1" edge="1">
          <mxGeometry relative="1" as="geometry" />
        </mxCell>
        <mxCell id="zyRSz5ip37z3qWV7Lry0-4" value="是" style="edgeLabel;html=1;align=center;verticalAlign=middle;resizable=0;points=[];fontColor=#000000;" parent="zyRSz5ip37z3qWV7Lry0-2" vertex="1" connectable="0">
          <mxGeometry x="-0.05" y="-1" relative="1" as="geometry">
            <mxPoint as="offset" />
          </mxGeometry>
        </mxCell>
        <mxCell id="zyRSz5ip37z3qWV7Lry0-6" style="edgeStyle=orthogonalEdgeStyle;rounded=0;orthogonalLoop=1;jettySize=auto;html=1;fontColor=#000000;" parent="1" source="i_WLHFgb04rwcssGX6vp-11" target="zyRSz5ip37z3qWV7Lry0-5" edge="1">
          <mxGeometry relative="1" as="geometry" />
        </mxCell>
        <mxCell id="zyRSz5ip37z3qWV7Lry0-7" value="否" style="edgeLabel;html=1;align=center;verticalAlign=middle;resizable=0;points=[];fontColor=#000000;" parent="zyRSz5ip37z3qWV7Lry0-6" vertex="1" connectable="0">
          <mxGeometry x="-0.1827" y="1" relative="1" as="geometry">
            <mxPoint y="1" as="offset" />
          </mxGeometry>
        </mxCell>
        <mxCell id="i_WLHFgb04rwcssGX6vp-11" value="sc &amp;lt; 0" style="rhombus;whiteSpace=wrap;html=1;fontFamily=Helvetica;fontSize=12;fontColor=default;" parent="1" vertex="1">
          <mxGeometry x="610" y="430" width="140" height="130" as="geometry" />
        </mxCell>
        <mxCell id="i_WLHFgb04rwcssGX6vp-14" style="edgeStyle=orthogonalEdgeStyle;rounded=0;orthogonalLoop=1;jettySize=auto;html=1;fontColor=#FF00FF;" parent="1" source="i_WLHFgb04rwcssGX6vp-12" target="i_WLHFgb04rwcssGX6vp-11" edge="1">
          <mxGeometry relative="1" as="geometry" />
        </mxCell>
        <mxCell id="i_WLHFgb04rwcssGX6vp-12" value="sc = &lt;font color=&quot;#ff00ff&quot;&gt;sizeCtl&lt;/font&gt;" style="whiteSpace=wrap;html=1;" parent="1" vertex="1">
          <mxGeometry x="620" y="325" width="120" height="60" as="geometry" />
        </mxCell>
        <mxCell id="zyRSz5ip37z3qWV7Lry0-24" style="edgeStyle=orthogonalEdgeStyle;rounded=0;orthogonalLoop=1;jettySize=auto;html=1;entryX=0.5;entryY=1;entryDx=0;entryDy=0;fontColor=#FF00FF;" parent="1" source="zyRSz5ip37z3qWV7Lry0-1" target="i_WLHFgb04rwcssGX6vp-3" edge="1">
          <mxGeometry relative="1" as="geometry" />
        </mxCell>
        <mxCell id="zyRSz5ip37z3qWV7Lry0-1" value="&lt;font color=&quot;#000000&quot;&gt;放弃CPU停顿一下，有人在执行初始化或者扩容了&lt;/font&gt;" style="whiteSpace=wrap;html=1;fontColor=#FF00FF;" parent="1" vertex="1">
          <mxGeometry x="620" y="620" width="120" height="60" as="geometry" />
        </mxCell>
        <mxCell id="zyRSz5ip37z3qWV7Lry0-8" style="edgeStyle=orthogonalEdgeStyle;rounded=0;orthogonalLoop=1;jettySize=auto;html=1;entryX=0.5;entryY=0;entryDx=0;entryDy=0;fontColor=#000000;" parent="1" source="zyRSz5ip37z3qWV7Lry0-5" target="i_WLHFgb04rwcssGX6vp-3" edge="1">
          <mxGeometry relative="1" as="geometry">
            <Array as="points">
              <mxPoint x="900" y="290" />
            </Array>
          </mxGeometry>
        </mxCell>
        <mxCell id="zyRSz5ip37z3qWV7Lry0-9" value="失败" style="edgeLabel;html=1;align=center;verticalAlign=middle;resizable=0;points=[];fontColor=#000000;" parent="zyRSz5ip37z3qWV7Lry0-8" vertex="1" connectable="0">
          <mxGeometry x="-0.7407" y="2" relative="1" as="geometry">
            <mxPoint as="offset" />
          </mxGeometry>
        </mxCell>
        <mxCell id="zyRSz5ip37z3qWV7Lry0-13" style="edgeStyle=orthogonalEdgeStyle;rounded=0;orthogonalLoop=1;jettySize=auto;html=1;fontColor=#000000;" parent="1" source="zyRSz5ip37z3qWV7Lry0-5" target="zyRSz5ip37z3qWV7Lry0-10" edge="1">
          <mxGeometry relative="1" as="geometry" />
        </mxCell>
        <mxCell id="zyRSz5ip37z3qWV7Lry0-14" value="替换成功" style="edgeLabel;html=1;align=center;verticalAlign=middle;resizable=0;points=[];fontColor=#000000;" parent="zyRSz5ip37z3qWV7Lry0-13" vertex="1" connectable="0">
          <mxGeometry x="0.29" y="-2" relative="1" as="geometry">
            <mxPoint as="offset" />
          </mxGeometry>
        </mxCell>
        <mxCell id="zyRSz5ip37z3qWV7Lry0-5" value="通过cas操作比较sc和偏移为&lt;font color=&quot;#ff00ff&quot;&gt;SIZECTL&lt;/font&gt;的值，然后将sc替换成-1" style="rhombus;whiteSpace=wrap;html=1;fontFamily=Helvetica;fontSize=12;fontColor=default;" parent="1" vertex="1">
          <mxGeometry x="830" y="430" width="140" height="130" as="geometry" />
        </mxCell>
        <mxCell id="zyRSz5ip37z3qWV7Lry0-15" style="edgeStyle=orthogonalEdgeStyle;rounded=0;orthogonalLoop=1;jettySize=auto;html=1;entryX=0.5;entryY=0;entryDx=0;entryDy=0;fontColor=#000000;" parent="1" source="zyRSz5ip37z3qWV7Lry0-10" target="zyRSz5ip37z3qWV7Lry0-11" edge="1">
          <mxGeometry relative="1" as="geometry" />
        </mxCell>
        <mxCell id="zyRSz5ip37z3qWV7Lry0-10" value="tab = &lt;font color=&quot;#ff00ff&quot;&gt;table&lt;/font&gt;" style="whiteSpace=wrap;html=1;fontColor=#000000;" parent="1" vertex="1">
          <mxGeometry x="840" y="620" width="120" height="60" as="geometry" />
        </mxCell>
        <mxCell id="zyRSz5ip37z3qWV7Lry0-16" style="edgeStyle=orthogonalEdgeStyle;rounded=0;orthogonalLoop=1;jettySize=auto;html=1;entryX=0.5;entryY=0;entryDx=0;entryDy=0;fontColor=#000000;" parent="1" source="zyRSz5ip37z3qWV7Lry0-11" target="zyRSz5ip37z3qWV7Lry0-12" edge="1">
          <mxGeometry relative="1" as="geometry" />
        </mxCell>
        <mxCell id="zyRSz5ip37z3qWV7Lry0-17" value="否" style="edgeLabel;html=1;align=center;verticalAlign=middle;resizable=0;points=[];fontColor=#000000;" parent="zyRSz5ip37z3qWV7Lry0-16" vertex="1" connectable="0">
          <mxGeometry x="-0.4654" y="2" relative="1" as="geometry">
            <mxPoint as="offset" />
          </mxGeometry>
        </mxCell>
        <mxCell id="idDRBpbRZt82TRtOF2QD-2" style="edgeStyle=orthogonalEdgeStyle;rounded=0;orthogonalLoop=1;jettySize=auto;html=1;entryX=0.541;entryY=-0.063;entryDx=0;entryDy=0;entryPerimeter=0;fontColor=#0000FF;" edge="1" parent="1" source="zyRSz5ip37z3qWV7Lry0-11" target="zyRSz5ip37z3qWV7Lry0-19">
          <mxGeometry relative="1" as="geometry" />
        </mxCell>
        <mxCell id="idDRBpbRZt82TRtOF2QD-4" value="是" style="edgeLabel;html=1;align=center;verticalAlign=middle;resizable=0;points=[];fontColor=#0000FF;" vertex="1" connectable="0" parent="idDRBpbRZt82TRtOF2QD-2">
          <mxGeometry x="-0.1692" y="3" relative="1" as="geometry">
            <mxPoint as="offset" />
          </mxGeometry>
        </mxCell>
        <mxCell id="zyRSz5ip37z3qWV7Lry0-11" value="再检查一次tab是否为空&lt;br&gt;tab == null || &lt;br&gt;tab.length ==0" style="rhombus;whiteSpace=wrap;html=1;fontFamily=Helvetica;fontSize=12;fontColor=default;" parent="1" vertex="1">
          <mxGeometry x="830" y="730" width="140" height="140" as="geometry" />
        </mxCell>
        <mxCell id="zyRSz5ip37z3qWV7Lry0-18" style="edgeStyle=orthogonalEdgeStyle;rounded=0;orthogonalLoop=1;jettySize=auto;html=1;entryX=1;entryY=0.5;entryDx=0;entryDy=0;fontColor=#000000;" parent="1" source="zyRSz5ip37z3qWV7Lry0-12" target="i_WLHFgb04rwcssGX6vp-6" edge="1">
          <mxGeometry relative="1" as="geometry" />
        </mxCell>
        <mxCell id="zyRSz5ip37z3qWV7Lry0-12" value="sizeCtl&lt;font color=&quot;#000000&quot;&gt; = sc&lt;/font&gt;" style="whiteSpace=wrap;html=1;fontColor=#FF00FF;" parent="1" vertex="1">
          <mxGeometry x="440" y="930" width="120" height="60" as="geometry" />
        </mxCell>
        <mxCell id="idDRBpbRZt82TRtOF2QD-3" style="edgeStyle=orthogonalEdgeStyle;rounded=0;orthogonalLoop=1;jettySize=auto;html=1;entryX=1;entryY=0.5;entryDx=0;entryDy=0;fontColor=#0000FF;" edge="1" parent="1" source="zyRSz5ip37z3qWV7Lry0-19" target="zyRSz5ip37z3qWV7Lry0-12">
          <mxGeometry relative="1" as="geometry" />
        </mxCell>
        <mxCell id="zyRSz5ip37z3qWV7Lry0-19" value="n = (sc &amp;gt; 0) ? sc : &lt;font color=&quot;#ff00ff&quot;&gt;DEFAULT_CAPACITY&lt;/font&gt;;&lt;br&gt;Node&amp;lt;K,V&amp;gt; nt = (Node&amp;lt;K,V&amp;gt;[])new Node&amp;lt;?,?&amp;gt;[];&lt;br&gt;&lt;font color=&quot;#ff00ff&quot;&gt;table&lt;/font&gt; = tab = nt;&lt;br&gt;sc = n - (n &amp;gt;&amp;gt;&amp;gt; 2);" style="whiteSpace=wrap;html=1;fontColor=#000000;" parent="1" vertex="1">
          <mxGeometry x="750" y="930" width="280" height="60" as="geometry" />
        </mxCell>
        <mxCell id="zyRSz5ip37z3qWV7Lry0-22" value="使用默认的表容量来初始化表长度，如果构造器中给定了参数，则用给定的参数。&lt;br&gt;sc即后续赋值的&lt;font color=&quot;#ff00ff&quot;&gt;sizeCtl&lt;/font&gt;是容量阀值" style="shape=document;whiteSpace=wrap;html=1;boundedLbl=1;fontColor=#000000;" parent="1" vertex="1">
          <mxGeometry x="1020" y="750" width="300" height="120" as="geometry" />
        </mxCell>
        <mxCell id="zyRSz5ip37z3qWV7Lry0-23" value="" style="shape=flexArrow;endArrow=classic;html=1;rounded=0;fontColor=#FF00FF;exitX=0.75;exitY=0;exitDx=0;exitDy=0;" parent="1" source="zyRSz5ip37z3qWV7Lry0-19" target="zyRSz5ip37z3qWV7Lry0-22" edge="1">
          <mxGeometry width="50" height="50" relative="1" as="geometry">
            <mxPoint x="1430" y="1310" as="sourcePoint" />
            <mxPoint x="1480" y="1260" as="targetPoint" />
          </mxGeometry>
        </mxCell>
        <mxCell id="bNIePvq8DDTt4exItl_V-2" value="start" style="whiteSpace=wrap;html=1;" vertex="1" parent="1">
          <mxGeometry x="2630" y="50" width="120" height="60" as="geometry" />
        </mxCell>
      </root>
    </mxGraphModel>
  </diagram>
  <diagram id="oCWw45aEA11QwKdaFB6C" name="addCount">
    <mxGraphModel dx="1186" dy="653" grid="1" gridSize="10" guides="1" tooltips="1" connect="1" arrows="1" fold="1" page="1" pageScale="1" pageWidth="827" pageHeight="1169" math="0" shadow="0">
      <root>
        <mxCell id="0" />
        <mxCell id="1" parent="0" />
        <mxCell id="LJGaWwoeP-A32JLu5xFg-1" value="&lt;div style=&quot;&quot;&gt;&lt;span style=&quot;background-color: initial;&quot;&gt;baseCount是记录表中元素个数的字段。&lt;/span&gt;&lt;/div&gt;counterCells是counterCell类型数组，在对bashCount修改时发生冲突，就会通过累加counterCells中的值来得到表中元素个数" style="shape=document;whiteSpace=wrap;html=1;boundedLbl=1;fontColor=#000000;align=left;" parent="1" vertex="1">
          <mxGeometry x="260" y="130" width="380" height="80" as="geometry" />
        </mxCell>
        <mxCell id="z-cnOxnjKGFMkRXJYqfk-5" style="edgeStyle=orthogonalEdgeStyle;rounded=0;orthogonalLoop=1;jettySize=auto;html=1;fontColor=#000000;" edge="1" parent="1" source="z-cnOxnjKGFMkRXJYqfk-1" target="z-cnOxnjKGFMkRXJYqfk-3">
          <mxGeometry relative="1" as="geometry" />
        </mxCell>
        <mxCell id="z-cnOxnjKGFMkRXJYqfk-1" value="start" style="whiteSpace=wrap;html=1;fontColor=#000000;" vertex="1" parent="1">
          <mxGeometry x="780" y="40" width="120" height="60" as="geometry" />
        </mxCell>
        <mxCell id="z-cnOxnjKGFMkRXJYqfk-7" style="edgeStyle=orthogonalEdgeStyle;rounded=0;orthogonalLoop=1;jettySize=auto;html=1;fontColor=#000000;" edge="1" parent="1" source="z-cnOxnjKGFMkRXJYqfk-3" target="z-cnOxnjKGFMkRXJYqfk-6">
          <mxGeometry relative="1" as="geometry" />
        </mxCell>
        <mxCell id="z-cnOxnjKGFMkRXJYqfk-8" value="false" style="edgeLabel;html=1;align=center;verticalAlign=middle;resizable=0;points=[];fontColor=#000000;" vertex="1" connectable="0" parent="z-cnOxnjKGFMkRXJYqfk-7">
          <mxGeometry y="-1" relative="1" as="geometry">
            <mxPoint as="offset" />
          </mxGeometry>
        </mxCell>
        <mxCell id="z-cnOxnjKGFMkRXJYqfk-11" style="edgeStyle=orthogonalEdgeStyle;rounded=0;orthogonalLoop=1;jettySize=auto;html=1;entryX=0.5;entryY=0;entryDx=0;entryDy=0;fontColor=#000000;" edge="1" parent="1" source="z-cnOxnjKGFMkRXJYqfk-3" target="z-cnOxnjKGFMkRXJYqfk-9">
          <mxGeometry relative="1" as="geometry" />
        </mxCell>
        <mxCell id="z-cnOxnjKGFMkRXJYqfk-14" value="true" style="edgeLabel;html=1;align=center;verticalAlign=middle;resizable=0;points=[];fontColor=#000000;" vertex="1" connectable="0" parent="z-cnOxnjKGFMkRXJYqfk-11">
          <mxGeometry x="-0.4256" y="1" relative="1" as="geometry">
            <mxPoint as="offset" />
          </mxGeometry>
        </mxCell>
        <mxCell id="z-cnOxnjKGFMkRXJYqfk-3" value="connterCells != null" style="rhombus;whiteSpace=wrap;html=1;fontFamily=Helvetica;fontSize=12;fontColor=default;" vertex="1" parent="1">
          <mxGeometry x="770" y="190" width="140" height="130" as="geometry" />
        </mxCell>
        <mxCell id="z-cnOxnjKGFMkRXJYqfk-4" value="" style="shape=flexArrow;endArrow=classic;html=1;rounded=0;fontColor=#000000;entryX=1;entryY=0.381;entryDx=0;entryDy=0;entryPerimeter=0;exitX=0;exitY=0;exitDx=0;exitDy=0;" edge="1" parent="1" source="z-cnOxnjKGFMkRXJYqfk-3" target="LJGaWwoeP-A32JLu5xFg-1">
          <mxGeometry width="50" height="50" relative="1" as="geometry">
            <mxPoint x="780" y="360" as="sourcePoint" />
            <mxPoint x="830" y="310" as="targetPoint" />
          </mxGeometry>
        </mxCell>
        <mxCell id="z-cnOxnjKGFMkRXJYqfk-10" style="edgeStyle=orthogonalEdgeStyle;rounded=0;orthogonalLoop=1;jettySize=auto;html=1;entryX=1;entryY=0.5;entryDx=0;entryDy=0;fontColor=#000000;" edge="1" parent="1" source="z-cnOxnjKGFMkRXJYqfk-6" target="z-cnOxnjKGFMkRXJYqfk-9">
          <mxGeometry relative="1" as="geometry" />
        </mxCell>
        <mxCell id="z-cnOxnjKGFMkRXJYqfk-13" value="失败" style="edgeLabel;html=1;align=center;verticalAlign=middle;resizable=0;points=[];fontColor=#000000;" vertex="1" connectable="0" parent="z-cnOxnjKGFMkRXJYqfk-10">
          <mxGeometry x="-0.15" y="1" relative="1" as="geometry">
            <mxPoint as="offset" />
          </mxGeometry>
        </mxCell>
        <mxCell id="z-cnOxnjKGFMkRXJYqfk-15" style="edgeStyle=orthogonalEdgeStyle;rounded=0;orthogonalLoop=1;jettySize=auto;html=1;entryX=0.5;entryY=0;entryDx=0;entryDy=0;fontColor=#000000;" edge="1" parent="1" source="z-cnOxnjKGFMkRXJYqfk-6" target="z-cnOxnjKGFMkRXJYqfk-12">
          <mxGeometry relative="1" as="geometry" />
        </mxCell>
        <mxCell id="z-cnOxnjKGFMkRXJYqfk-16" value="成功" style="edgeLabel;html=1;align=center;verticalAlign=middle;resizable=0;points=[];fontColor=#000000;" vertex="1" connectable="0" parent="z-cnOxnjKGFMkRXJYqfk-15">
          <mxGeometry x="-0.1" y="2" relative="1" as="geometry">
            <mxPoint as="offset" />
          </mxGeometry>
        </mxCell>
        <mxCell id="z-cnOxnjKGFMkRXJYqfk-6" value="cas修改baseCount的值" style="rhombus;whiteSpace=wrap;html=1;fontFamily=Helvetica;fontSize=12;fontColor=default;" vertex="1" parent="1">
          <mxGeometry x="770" y="390" width="140" height="130" as="geometry" />
        </mxCell>
        <mxCell id="z-cnOxnjKGFMkRXJYqfk-17" style="edgeStyle=orthogonalEdgeStyle;rounded=0;orthogonalLoop=1;jettySize=auto;html=1;entryX=0;entryY=0.5;entryDx=0;entryDy=0;fontColor=#000000;" edge="1" parent="1" source="z-cnOxnjKGFMkRXJYqfk-9" target="z-cnOxnjKGFMkRXJYqfk-12">
          <mxGeometry relative="1" as="geometry">
            <Array as="points">
              <mxPoint x="550" y="675" />
            </Array>
          </mxGeometry>
        </mxCell>
        <mxCell id="z-cnOxnjKGFMkRXJYqfk-9" value="通过分片的方式，累加counterCells中的值得到总元素个数" style="whiteSpace=wrap;html=1;fontColor=#000000;" vertex="1" parent="1">
          <mxGeometry x="490" y="425" width="120" height="60" as="geometry" />
        </mxCell>
        <mxCell id="z-cnOxnjKGFMkRXJYqfk-20" style="edgeStyle=orthogonalEdgeStyle;rounded=0;orthogonalLoop=1;jettySize=auto;html=1;entryX=0.5;entryY=0;entryDx=0;entryDy=0;fontColor=#000000;" edge="1" parent="1" source="z-cnOxnjKGFMkRXJYqfk-12" target="z-cnOxnjKGFMkRXJYqfk-18">
          <mxGeometry relative="1" as="geometry">
            <Array as="points">
              <mxPoint x="650" y="740" />
            </Array>
          </mxGeometry>
        </mxCell>
        <mxCell id="z-cnOxnjKGFMkRXJYqfk-26" value="需要，且第一次扩容" style="edgeLabel;html=1;align=center;verticalAlign=middle;resizable=0;points=[];fontColor=#000000;" vertex="1" connectable="0" parent="z-cnOxnjKGFMkRXJYqfk-20">
          <mxGeometry x="0.4875" y="-2" relative="1" as="geometry">
            <mxPoint as="offset" />
          </mxGeometry>
        </mxCell>
        <mxCell id="z-cnOxnjKGFMkRXJYqfk-21" style="edgeStyle=orthogonalEdgeStyle;rounded=0;orthogonalLoop=1;jettySize=auto;html=1;fontColor=#000000;entryX=0.5;entryY=0;entryDx=0;entryDy=0;" edge="1" parent="1" source="z-cnOxnjKGFMkRXJYqfk-12" target="z-cnOxnjKGFMkRXJYqfk-19">
          <mxGeometry relative="1" as="geometry">
            <mxPoint x="1040" y="820" as="targetPoint" />
          </mxGeometry>
        </mxCell>
        <mxCell id="z-cnOxnjKGFMkRXJYqfk-27" value="需要，但已经在扩容" style="edgeLabel;html=1;align=center;verticalAlign=middle;resizable=0;points=[];fontColor=#000000;" vertex="1" connectable="0" parent="z-cnOxnjKGFMkRXJYqfk-21">
          <mxGeometry x="0.4462" relative="1" as="geometry">
            <mxPoint as="offset" />
          </mxGeometry>
        </mxCell>
        <mxCell id="z-cnOxnjKGFMkRXJYqfk-23" style="edgeStyle=orthogonalEdgeStyle;rounded=0;orthogonalLoop=1;jettySize=auto;html=1;fontColor=#000000;entryX=0.5;entryY=0;entryDx=0;entryDy=0;" edge="1" parent="1" source="z-cnOxnjKGFMkRXJYqfk-12" target="z-cnOxnjKGFMkRXJYqfk-22">
          <mxGeometry relative="1" as="geometry">
            <mxPoint x="840" y="1050" as="targetPoint" />
          </mxGeometry>
        </mxCell>
        <mxCell id="z-cnOxnjKGFMkRXJYqfk-28" value="不需要" style="edgeLabel;html=1;align=center;verticalAlign=middle;resizable=0;points=[];fontColor=#000000;" vertex="1" connectable="0" parent="z-cnOxnjKGFMkRXJYqfk-23">
          <mxGeometry x="-0.1259" relative="1" as="geometry">
            <mxPoint as="offset" />
          </mxGeometry>
        </mxCell>
        <mxCell id="z-cnOxnjKGFMkRXJYqfk-12" value="是否需要扩容" style="rhombus;whiteSpace=wrap;html=1;fontFamily=Helvetica;fontSize=12;fontColor=default;" vertex="1" parent="1">
          <mxGeometry x="770" y="610" width="140" height="130" as="geometry" />
        </mxCell>
        <mxCell id="z-cnOxnjKGFMkRXJYqfk-25" style="edgeStyle=orthogonalEdgeStyle;rounded=0;orthogonalLoop=1;jettySize=auto;html=1;entryX=0;entryY=0.5;entryDx=0;entryDy=0;fontColor=#000000;" edge="1" parent="1" source="z-cnOxnjKGFMkRXJYqfk-18" target="z-cnOxnjKGFMkRXJYqfk-22">
          <mxGeometry relative="1" as="geometry" />
        </mxCell>
        <mxCell id="z-cnOxnjKGFMkRXJYqfk-18" value="设置sizeCtl，&lt;br&gt;开始扩容" style="whiteSpace=wrap;html=1;fontColor=#000000;" vertex="1" parent="1">
          <mxGeometry x="590" y="870" width="120" height="60" as="geometry" />
        </mxCell>
        <mxCell id="z-cnOxnjKGFMkRXJYqfk-24" style="edgeStyle=orthogonalEdgeStyle;rounded=0;orthogonalLoop=1;jettySize=auto;html=1;entryX=1;entryY=0.5;entryDx=0;entryDy=0;fontColor=#000000;" edge="1" parent="1" source="z-cnOxnjKGFMkRXJYqfk-19" target="z-cnOxnjKGFMkRXJYqfk-22">
          <mxGeometry relative="1" as="geometry" />
        </mxCell>
        <mxCell id="z-cnOxnjKGFMkRXJYqfk-19" value="sizeCtl + 1，&lt;br&gt;协助扩容" style="whiteSpace=wrap;html=1;fontColor=#000000;" vertex="1" parent="1">
          <mxGeometry x="980" y="870" width="120" height="60" as="geometry" />
        </mxCell>
        <mxCell id="z-cnOxnjKGFMkRXJYqfk-22" value="end" style="whiteSpace=wrap;html=1;fontColor=#000000;" vertex="1" parent="1">
          <mxGeometry x="780" y="1010" width="120" height="60" as="geometry" />
        </mxCell>
      </root>
    </mxGraphModel>
  </diagram>
  <diagram id="3Zeu4Su1rgz7UT-OHXmT" name="transfer">
    <mxGraphModel dx="1186" dy="653" grid="1" gridSize="10" guides="1" tooltips="1" connect="1" arrows="1" fold="1" page="1" pageScale="1" pageWidth="827" pageHeight="1169" math="0" shadow="0">
      <root>
        <mxCell id="0" />
        <mxCell id="1" parent="0" />
        <mxCell id="nkc3qcRJ9PeO7CqEa0wC-6" style="edgeStyle=orthogonalEdgeStyle;rounded=0;orthogonalLoop=1;jettySize=auto;html=1;entryX=0.5;entryY=0;entryDx=0;entryDy=0;fontColor=#000000;" edge="1" parent="1" source="nkc3qcRJ9PeO7CqEa0wC-1" target="nkc3qcRJ9PeO7CqEa0wC-2">
          <mxGeometry relative="1" as="geometry" />
        </mxCell>
        <mxCell id="nkc3qcRJ9PeO7CqEa0wC-1" value="start" style="whiteSpace=wrap;html=1;fontColor=#000000;" vertex="1" parent="1">
          <mxGeometry x="360" y="40" width="120" height="60" as="geometry" />
        </mxCell>
        <mxCell id="nkc3qcRJ9PeO7CqEa0wC-7" style="edgeStyle=orthogonalEdgeStyle;rounded=0;orthogonalLoop=1;jettySize=auto;html=1;fontColor=#000000;" edge="1" parent="1" source="nkc3qcRJ9PeO7CqEa0wC-2" target="nkc3qcRJ9PeO7CqEa0wC-3">
          <mxGeometry relative="1" as="geometry" />
        </mxCell>
        <mxCell id="nkc3qcRJ9PeO7CqEa0wC-2" value="根据cpu数量设置扩容线程扩容节点树" style="whiteSpace=wrap;html=1;fontColor=#000000;" vertex="1" parent="1">
          <mxGeometry x="360" y="140" width="120" height="60" as="geometry" />
        </mxCell>
        <mxCell id="nkc3qcRJ9PeO7CqEa0wC-8" style="edgeStyle=orthogonalEdgeStyle;rounded=0;orthogonalLoop=1;jettySize=auto;html=1;fontColor=#000000;" edge="1" parent="1" source="nkc3qcRJ9PeO7CqEa0wC-3" target="nkc3qcRJ9PeO7CqEa0wC-4">
          <mxGeometry relative="1" as="geometry" />
        </mxCell>
        <mxCell id="BGGFQKh2AMpd43pnaQH6-3" value="否" style="edgeLabel;html=1;align=center;verticalAlign=middle;resizable=0;points=[];fontColor=#000000;" vertex="1" connectable="0" parent="nkc3qcRJ9PeO7CqEa0wC-8">
          <mxGeometry y="-1" relative="1" as="geometry">
            <mxPoint as="offset" />
          </mxGeometry>
        </mxCell>
        <mxCell id="BGGFQKh2AMpd43pnaQH6-1" style="edgeStyle=orthogonalEdgeStyle;rounded=0;orthogonalLoop=1;jettySize=auto;html=1;entryX=0.5;entryY=0;entryDx=0;entryDy=0;fontColor=#000000;" edge="1" parent="1" source="nkc3qcRJ9PeO7CqEa0wC-3" target="nkc3qcRJ9PeO7CqEa0wC-5">
          <mxGeometry relative="1" as="geometry" />
        </mxCell>
        <mxCell id="BGGFQKh2AMpd43pnaQH6-4" value="是" style="edgeLabel;html=1;align=center;verticalAlign=middle;resizable=0;points=[];fontColor=#000000;" vertex="1" connectable="0" parent="BGGFQKh2AMpd43pnaQH6-1">
          <mxGeometry x="-0.3" y="-1" relative="1" as="geometry">
            <mxPoint as="offset" />
          </mxGeometry>
        </mxCell>
        <mxCell id="nkc3qcRJ9PeO7CqEa0wC-3" value="是否已经在扩容" style="rhombus;whiteSpace=wrap;html=1;fontFamily=Helvetica;fontSize=12;fontColor=default;" vertex="1" parent="1">
          <mxGeometry x="350" y="240" width="140" height="130" as="geometry" />
        </mxCell>
        <mxCell id="BGGFQKh2AMpd43pnaQH6-2" style="edgeStyle=orthogonalEdgeStyle;rounded=0;orthogonalLoop=1;jettySize=auto;html=1;entryX=0;entryY=0.5;entryDx=0;entryDy=0;fontColor=#000000;" edge="1" parent="1" source="nkc3qcRJ9PeO7CqEa0wC-4" target="nkc3qcRJ9PeO7CqEa0wC-5">
          <mxGeometry relative="1" as="geometry">
            <Array as="points">
              <mxPoint x="210" y="460" />
            </Array>
          </mxGeometry>
        </mxCell>
        <mxCell id="nkc3qcRJ9PeO7CqEa0wC-4" value="初始化新表，并设置要转移的节点索引" style="whiteSpace=wrap;html=1;fontColor=#000000;" vertex="1" parent="1">
          <mxGeometry x="160" y="275" width="120" height="60" as="geometry" />
        </mxCell>
        <mxCell id="BGGFQKh2AMpd43pnaQH6-22" style="edgeStyle=orthogonalEdgeStyle;rounded=0;orthogonalLoop=1;jettySize=auto;html=1;entryX=0.5;entryY=0;entryDx=0;entryDy=0;fontColor=#000000;" edge="1" parent="1" source="nkc3qcRJ9PeO7CqEa0wC-5" target="BGGFQKh2AMpd43pnaQH6-21">
          <mxGeometry relative="1" as="geometry" />
        </mxCell>
        <mxCell id="nkc3qcRJ9PeO7CqEa0wC-5" value="创建ForwardingNode节点" style="whiteSpace=wrap;html=1;fontColor=#000000;" vertex="1" parent="1">
          <mxGeometry x="360" y="430" width="120" height="60" as="geometry" />
        </mxCell>
        <mxCell id="BGGFQKh2AMpd43pnaQH6-7" style="edgeStyle=orthogonalEdgeStyle;rounded=0;orthogonalLoop=1;jettySize=auto;html=1;entryX=0.5;entryY=0;entryDx=0;entryDy=0;fontColor=#000000;" edge="1" parent="1" source="BGGFQKh2AMpd43pnaQH6-5" target="BGGFQKh2AMpd43pnaQH6-6">
          <mxGeometry relative="1" as="geometry" />
        </mxCell>
        <mxCell id="BGGFQKh2AMpd43pnaQH6-8" value="&lt;span style=&quot;font-size: 12px; background-color: rgb(248, 249, 250);&quot;&gt;所有线程已扩容完&lt;/span&gt;" style="edgeLabel;html=1;align=center;verticalAlign=middle;resizable=0;points=[];fontColor=#000000;" vertex="1" connectable="0" parent="BGGFQKh2AMpd43pnaQH6-7">
          <mxGeometry x="-0.142" y="-3" relative="1" as="geometry">
            <mxPoint as="offset" />
          </mxGeometry>
        </mxCell>
        <mxCell id="BGGFQKh2AMpd43pnaQH6-10" style="edgeStyle=orthogonalEdgeStyle;rounded=0;orthogonalLoop=1;jettySize=auto;html=1;entryX=0.5;entryY=0;entryDx=0;entryDy=0;fontColor=#000000;" edge="1" parent="1" source="BGGFQKh2AMpd43pnaQH6-5" target="BGGFQKh2AMpd43pnaQH6-9">
          <mxGeometry relative="1" as="geometry">
            <Array as="points">
              <mxPoint x="290" y="810" />
            </Array>
          </mxGeometry>
        </mxCell>
        <mxCell id="BGGFQKh2AMpd43pnaQH6-11" value="当前线程扩容任务已完成" style="edgeLabel;html=1;align=center;verticalAlign=middle;resizable=0;points=[];fontColor=#000000;" vertex="1" connectable="0" parent="BGGFQKh2AMpd43pnaQH6-10">
          <mxGeometry x="0.0875" relative="1" as="geometry">
            <mxPoint as="offset" />
          </mxGeometry>
        </mxCell>
        <mxCell id="BGGFQKh2AMpd43pnaQH6-13" style="edgeStyle=orthogonalEdgeStyle;rounded=0;orthogonalLoop=1;jettySize=auto;html=1;entryX=0.5;entryY=0;entryDx=0;entryDy=0;fontColor=#000000;" edge="1" parent="1" source="BGGFQKh2AMpd43pnaQH6-5" target="BGGFQKh2AMpd43pnaQH6-12">
          <mxGeometry relative="1" as="geometry">
            <Array as="points">
              <mxPoint x="510" y="810" />
            </Array>
          </mxGeometry>
        </mxCell>
        <mxCell id="BGGFQKh2AMpd43pnaQH6-14" value="&lt;span style=&quot;font-size: 12px; background-color: rgb(248, 249, 250);&quot;&gt;当前节点已在扩容处理中&lt;/span&gt;" style="edgeLabel;html=1;align=center;verticalAlign=middle;resizable=0;points=[];fontColor=#000000;" vertex="1" connectable="0" parent="BGGFQKh2AMpd43pnaQH6-13">
          <mxGeometry x="0.175" y="1" relative="1" as="geometry">
            <mxPoint as="offset" />
          </mxGeometry>
        </mxCell>
        <mxCell id="BGGFQKh2AMpd43pnaQH6-16" style="edgeStyle=orthogonalEdgeStyle;rounded=0;orthogonalLoop=1;jettySize=auto;html=1;entryX=1.042;entryY=0.633;entryDx=0;entryDy=0;fontColor=#000000;entryPerimeter=0;" edge="1" parent="1" source="BGGFQKh2AMpd43pnaQH6-5" target="BGGFQKh2AMpd43pnaQH6-21">
          <mxGeometry relative="1" as="geometry">
            <mxPoint x="680" y="970" as="targetPoint" />
            <Array as="points">
              <mxPoint x="740" y="780" />
              <mxPoint x="740" y="593" />
            </Array>
          </mxGeometry>
        </mxCell>
        <mxCell id="BGGFQKh2AMpd43pnaQH6-17" value="当前节点已经迁移完成" style="edgeLabel;html=1;align=center;verticalAlign=middle;resizable=0;points=[];fontColor=#000000;" vertex="1" connectable="0" parent="BGGFQKh2AMpd43pnaQH6-16">
          <mxGeometry x="-0.4708" y="2" relative="1" as="geometry">
            <mxPoint x="95" y="-108" as="offset" />
          </mxGeometry>
        </mxCell>
        <mxCell id="BGGFQKh2AMpd43pnaQH6-18" style="edgeStyle=orthogonalEdgeStyle;rounded=0;orthogonalLoop=1;jettySize=auto;html=1;fontColor=#000000;entryX=0;entryY=0.5;entryDx=0;entryDy=0;" edge="1" parent="1" source="BGGFQKh2AMpd43pnaQH6-5" target="BGGFQKh2AMpd43pnaQH6-19">
          <mxGeometry relative="1" as="geometry">
            <mxPoint x="860" y="745" as="targetPoint" />
          </mxGeometry>
        </mxCell>
        <mxCell id="BGGFQKh2AMpd43pnaQH6-20" value="待迁移" style="edgeLabel;html=1;align=center;verticalAlign=middle;resizable=0;points=[];fontColor=#000000;" vertex="1" connectable="0" parent="BGGFQKh2AMpd43pnaQH6-18">
          <mxGeometry x="-0.2739" y="-1" relative="1" as="geometry">
            <mxPoint as="offset" />
          </mxGeometry>
        </mxCell>
        <mxCell id="BGGFQKh2AMpd43pnaQH6-5" value="检查状态" style="rhombus;whiteSpace=wrap;html=1;fontFamily=Helvetica;fontSize=12;fontColor=default;" vertex="1" parent="1">
          <mxGeometry x="350" y="680" width="140" height="130" as="geometry" />
        </mxCell>
        <mxCell id="BGGFQKh2AMpd43pnaQH6-27" style="edgeStyle=orthogonalEdgeStyle;rounded=0;orthogonalLoop=1;jettySize=auto;html=1;fontColor=#000000;" edge="1" parent="1" source="BGGFQKh2AMpd43pnaQH6-6" target="BGGFQKh2AMpd43pnaQH6-26">
          <mxGeometry relative="1" as="geometry" />
        </mxCell>
        <mxCell id="BGGFQKh2AMpd43pnaQH6-6" value="替换table为新表，&lt;br&gt;设置sizeCtl" style="whiteSpace=wrap;html=1;fontColor=#000000;" vertex="1" parent="1">
          <mxGeometry x="60" y="970" width="120" height="60" as="geometry" />
        </mxCell>
        <mxCell id="BGGFQKh2AMpd43pnaQH6-28" style="edgeStyle=orthogonalEdgeStyle;rounded=0;orthogonalLoop=1;jettySize=auto;html=1;entryX=0.75;entryY=0;entryDx=0;entryDy=0;fontColor=#000000;" edge="1" parent="1" source="BGGFQKh2AMpd43pnaQH6-9" target="BGGFQKh2AMpd43pnaQH6-26">
          <mxGeometry relative="1" as="geometry" />
        </mxCell>
        <mxCell id="BGGFQKh2AMpd43pnaQH6-9" value="设置sizeCtl - 1" style="whiteSpace=wrap;html=1;fontColor=#000000;" vertex="1" parent="1">
          <mxGeometry x="230" y="970" width="120" height="60" as="geometry" />
        </mxCell>
        <mxCell id="BGGFQKh2AMpd43pnaQH6-25" style="edgeStyle=orthogonalEdgeStyle;rounded=0;orthogonalLoop=1;jettySize=auto;html=1;entryX=1;entryY=0.25;entryDx=0;entryDy=0;fontColor=#000000;" edge="1" parent="1" source="BGGFQKh2AMpd43pnaQH6-12" target="BGGFQKh2AMpd43pnaQH6-21">
          <mxGeometry relative="1" as="geometry">
            <Array as="points">
              <mxPoint x="810" y="1000" />
              <mxPoint x="810" y="570" />
            </Array>
          </mxGeometry>
        </mxCell>
        <mxCell id="BGGFQKh2AMpd43pnaQH6-12" value="当前设置为ForwardingNode" style="whiteSpace=wrap;html=1;fontColor=#000000;" vertex="1" parent="1">
          <mxGeometry x="450" y="970" width="120" height="60" as="geometry" />
        </mxCell>
        <mxCell id="BGGFQKh2AMpd43pnaQH6-24" style="edgeStyle=orthogonalEdgeStyle;rounded=0;orthogonalLoop=1;jettySize=auto;html=1;entryX=1;entryY=0.75;entryDx=0;entryDy=0;fontColor=#000000;" edge="1" parent="1" source="BGGFQKh2AMpd43pnaQH6-19" target="BGGFQKh2AMpd43pnaQH6-21">
          <mxGeometry relative="1" as="geometry">
            <Array as="points">
              <mxPoint x="620" y="600" />
            </Array>
          </mxGeometry>
        </mxCell>
        <mxCell id="BGGFQKh2AMpd43pnaQH6-19" value="synchronized对节点加锁，开始迁移" style="whiteSpace=wrap;html=1;fontColor=#000000;" vertex="1" parent="1">
          <mxGeometry x="560" y="715" width="120" height="60" as="geometry" />
        </mxCell>
        <mxCell id="BGGFQKh2AMpd43pnaQH6-23" style="edgeStyle=orthogonalEdgeStyle;rounded=0;orthogonalLoop=1;jettySize=auto;html=1;entryX=0.5;entryY=0;entryDx=0;entryDy=0;fontColor=#000000;" edge="1" parent="1" source="BGGFQKh2AMpd43pnaQH6-21" target="BGGFQKh2AMpd43pnaQH6-5">
          <mxGeometry relative="1" as="geometry" />
        </mxCell>
        <mxCell id="BGGFQKh2AMpd43pnaQH6-21" value="计算出下一个要迁移的节点" style="whiteSpace=wrap;html=1;fontColor=#000000;" vertex="1" parent="1">
          <mxGeometry x="360" y="554.5" width="120" height="60" as="geometry" />
        </mxCell>
        <mxCell id="BGGFQKh2AMpd43pnaQH6-26" value="end" style="whiteSpace=wrap;html=1;fontColor=#000000;" vertex="1" parent="1">
          <mxGeometry x="130" y="1150" width="120" height="60" as="geometry" />
        </mxCell>
      </root>
    </mxGraphModel>
  </diagram>
  <diagram id="X71WNkyGpLtXvUcTx-FE" name="helpTransfer">
    <mxGraphModel dx="1186" dy="653" grid="1" gridSize="10" guides="1" tooltips="1" connect="1" arrows="1" fold="1" page="1" pageScale="1" pageWidth="827" pageHeight="1169" math="0" shadow="0">
      <root>
        <mxCell id="0" />
        <mxCell id="1" parent="0" />
        <mxCell id="kpNEra6MBpS82K0e5nHf-4" style="edgeStyle=orthogonalEdgeStyle;rounded=0;orthogonalLoop=1;jettySize=auto;html=1;entryX=0.5;entryY=0;entryDx=0;entryDy=0;fontColor=#000000;" edge="1" parent="1" source="kpNEra6MBpS82K0e5nHf-1" target="kpNEra6MBpS82K0e5nHf-2">
          <mxGeometry relative="1" as="geometry" />
        </mxCell>
        <mxCell id="kpNEra6MBpS82K0e5nHf-1" value="start" style="whiteSpace=wrap;html=1;fontColor=#000000;" vertex="1" parent="1">
          <mxGeometry x="380" y="30" width="120" height="60" as="geometry" />
        </mxCell>
        <mxCell id="kpNEra6MBpS82K0e5nHf-5" style="edgeStyle=orthogonalEdgeStyle;rounded=0;orthogonalLoop=1;jettySize=auto;html=1;entryX=0.5;entryY=0;entryDx=0;entryDy=0;fontColor=#000000;" edge="1" parent="1" source="kpNEra6MBpS82K0e5nHf-2" target="kpNEra6MBpS82K0e5nHf-3">
          <mxGeometry relative="1" as="geometry" />
        </mxCell>
        <mxCell id="kpNEra6MBpS82K0e5nHf-17" value="否" style="edgeLabel;html=1;align=center;verticalAlign=middle;resizable=0;points=[];fontColor=#000000;" vertex="1" connectable="0" parent="kpNEra6MBpS82K0e5nHf-5">
          <mxGeometry x="-0.3" y="-1" relative="1" as="geometry">
            <mxPoint as="offset" />
          </mxGeometry>
        </mxCell>
        <mxCell id="kpNEra6MBpS82K0e5nHf-15" style="edgeStyle=orthogonalEdgeStyle;rounded=0;orthogonalLoop=1;jettySize=auto;html=1;entryX=0.5;entryY=0;entryDx=0;entryDy=0;fontColor=#000000;" edge="1" parent="1" source="kpNEra6MBpS82K0e5nHf-2" target="kpNEra6MBpS82K0e5nHf-8">
          <mxGeometry relative="1" as="geometry" />
        </mxCell>
        <mxCell id="kpNEra6MBpS82K0e5nHf-16" value="是" style="edgeLabel;html=1;align=center;verticalAlign=middle;resizable=0;points=[];fontColor=#000000;" vertex="1" connectable="0" parent="kpNEra6MBpS82K0e5nHf-15">
          <mxGeometry x="-0.8864" relative="1" as="geometry">
            <mxPoint y="1" as="offset" />
          </mxGeometry>
        </mxCell>
        <mxCell id="kpNEra6MBpS82K0e5nHf-2" value="是否已扩容完成" style="rhombus;whiteSpace=wrap;html=1;fontFamily=Helvetica;fontSize=12;fontColor=default;" vertex="1" parent="1">
          <mxGeometry x="370" y="140" width="140" height="130" as="geometry" />
        </mxCell>
        <mxCell id="kpNEra6MBpS82K0e5nHf-9" style="edgeStyle=orthogonalEdgeStyle;rounded=0;orthogonalLoop=1;jettySize=auto;html=1;entryX=1;entryY=0.5;entryDx=0;entryDy=0;fontColor=#000000;" edge="1" parent="1" source="kpNEra6MBpS82K0e5nHf-3" target="kpNEra6MBpS82K0e5nHf-6">
          <mxGeometry relative="1" as="geometry" />
        </mxCell>
        <mxCell id="kpNEra6MBpS82K0e5nHf-18" value="是" style="edgeLabel;html=1;align=center;verticalAlign=middle;resizable=0;points=[];fontColor=#000000;" vertex="1" connectable="0" parent="kpNEra6MBpS82K0e5nHf-9">
          <mxGeometry x="-0.06" relative="1" as="geometry">
            <mxPoint as="offset" />
          </mxGeometry>
        </mxCell>
        <mxCell id="kpNEra6MBpS82K0e5nHf-20" style="edgeStyle=orthogonalEdgeStyle;rounded=0;orthogonalLoop=1;jettySize=auto;html=1;entryX=0.817;entryY=-0.058;entryDx=0;entryDy=0;entryPerimeter=0;fontColor=#000000;" edge="1" parent="1" source="kpNEra6MBpS82K0e5nHf-3" target="kpNEra6MBpS82K0e5nHf-7">
          <mxGeometry relative="1" as="geometry">
            <Array as="points">
              <mxPoint x="248" y="450" />
            </Array>
          </mxGeometry>
        </mxCell>
        <mxCell id="kpNEra6MBpS82K0e5nHf-21" value="否" style="edgeLabel;html=1;align=center;verticalAlign=middle;resizable=0;points=[];fontColor=#000000;" vertex="1" connectable="0" parent="kpNEra6MBpS82K0e5nHf-20">
          <mxGeometry x="0.0065" relative="1" as="geometry">
            <mxPoint as="offset" />
          </mxGeometry>
        </mxCell>
        <mxCell id="kpNEra6MBpS82K0e5nHf-3" value="是否还有节点需要协助扩容，通过transferIndex判断" style="rhombus;whiteSpace=wrap;html=1;fontFamily=Helvetica;fontSize=12;fontColor=default;" vertex="1" parent="1">
          <mxGeometry x="370" y="320" width="140" height="130" as="geometry" />
        </mxCell>
        <mxCell id="kpNEra6MBpS82K0e5nHf-10" style="edgeStyle=orthogonalEdgeStyle;rounded=0;orthogonalLoop=1;jettySize=auto;html=1;fontColor=#000000;" edge="1" parent="1" source="kpNEra6MBpS82K0e5nHf-6" target="kpNEra6MBpS82K0e5nHf-7">
          <mxGeometry relative="1" as="geometry" />
        </mxCell>
        <mxCell id="kpNEra6MBpS82K0e5nHf-6" value="协助扩容" style="whiteSpace=wrap;html=1;fontColor=#000000;" vertex="1" parent="1">
          <mxGeometry x="150" y="355" width="120" height="60" as="geometry" />
        </mxCell>
        <mxCell id="kpNEra6MBpS82K0e5nHf-13" style="edgeStyle=orthogonalEdgeStyle;rounded=0;orthogonalLoop=1;jettySize=auto;html=1;entryX=0.342;entryY=0.025;entryDx=0;entryDy=0;entryPerimeter=0;fontColor=#000000;" edge="1" parent="1" source="kpNEra6MBpS82K0e5nHf-7" target="kpNEra6MBpS82K0e5nHf-12">
          <mxGeometry relative="1" as="geometry" />
        </mxCell>
        <mxCell id="kpNEra6MBpS82K0e5nHf-7" value="返回新表nextTable" style="whiteSpace=wrap;html=1;fontColor=#000000;" vertex="1" parent="1">
          <mxGeometry x="150" y="490" width="120" height="60" as="geometry" />
        </mxCell>
        <mxCell id="kpNEra6MBpS82K0e5nHf-14" style="edgeStyle=orthogonalEdgeStyle;rounded=0;orthogonalLoop=1;jettySize=auto;html=1;entryX=0.683;entryY=-0.025;entryDx=0;entryDy=0;entryPerimeter=0;fontColor=#000000;" edge="1" parent="1" source="kpNEra6MBpS82K0e5nHf-8" target="kpNEra6MBpS82K0e5nHf-12">
          <mxGeometry relative="1" as="geometry" />
        </mxCell>
        <mxCell id="kpNEra6MBpS82K0e5nHf-8" value="返回table" style="whiteSpace=wrap;html=1;fontColor=#000000;" vertex="1" parent="1">
          <mxGeometry x="570" y="490" width="120" height="60" as="geometry" />
        </mxCell>
        <mxCell id="kpNEra6MBpS82K0e5nHf-12" value="end" style="whiteSpace=wrap;html=1;fontColor=#000000;" vertex="1" parent="1">
          <mxGeometry x="380" y="610" width="120" height="60" as="geometry" />
        </mxCell>
      </root>
    </mxGraphModel>
  </diagram>
</mxfile>
